<?xml version="1.0" encoding="utf-8"?>
<!-- Generator: Adobe Illustrator 22.1.0, SVG Export Plug-In . SVG Version: 6.00 Build 0)  -->
<svg version="1.1" id="Calque_1" xmlns="http://www.w3.org/2000/svg" xmlns:xlink="http://www.w3.org/1999/xlink" x="0px" y="0px"
	 viewBox="0 0 1920 1080" style="enable-background:new 0 0 1920 1080;" xml:space="preserve">
<style type="text/css">
	.st0{fill:none;}
</style>
<title>Fichier 4</title>
<path class="st0" d="M3.2,584.6c-0.4,0-1.1,0.1-1.4-0.1c-1.2-0.6-1-5.3,1.3-6.5c0.5-0.3,1.1-0.4,1.6-0.3c2.5,0.1,5-0.7,7.5-0.8
	c26.5-1.4,39.7-2.1,40.3-2.1c24.2-0.4,36.3-0.7,49.9-2.1c18.3-1.9,36.3-5.3,46.5-3.6c2.5,0.4,5,0.4,7.5,0c3.9-0.7,9.6-2.9,11.4-6
	c4.2-7.2-12.5-19.5-24.2-41c-9.1-16.8-11.2-31.9-12.9-44.1c-3.9-28.3,1.1-50.9,3.1-58.9c7.7-30.5,17.5-28.7,17.9-49.9
	c0.3-11.5-2.4-20.9-1.9-46.4c0.3-15.4,1.4-16.3,1.9-16.4c2.9-0.5,7.6,20.9,18.7,60.8c12,43.2,14.5,46.9,19.9,71.8
	c0.5,2.2-0.1-0.3,8.2,50.7c4.8,29.8,6.6,40.3,0.8,51.9c-7.1,14.1-21.5,22.1-23,20.7c-1.4-1.4,8.8-11.5,19.5-29.3
	c19.3-32.2,11.3-41.9,27.3-65.5c16.3-24.2,39.3-35.6,45.6-38.6c15.8-7.7,17.4-3.8,46-13.7c22.5-7.7,38.8-16.1,51.5-22.6
	c16.7-8.5,26.7-13.7,39.4-23c16.6-12.2,27-23.7,27.7-23c0.7,0.7-9.1,10.9-22.6,28.1c-10.2,13-12.2,16.9-19,25.8
	c-17.3,22.6-22.8,21.9-38.9,41.2c-24.5,29.3-18,38.3-38.9,55.6c-14.4,11.9-18.6,8.5-34.4,22.4c-18.1,15.9-14.9,22.3-31,36.7
	c-6,5.4-32.6,29.2-58.5,22c-9.7-2.6-19.5-9.7-19.3-10.1c0.1-0.2,2.6,0.9,5.9,2.1c5.8,2,11.8,3.4,17.9,4.3c13,1.9,15.9-1,29.1,0
	c8.1,0.6,7.4,1.7,23,4.7c19.8,3.8,31.6,6,34,1.8c2.9-5.1-11.7-13-11.7-27.8c-0.1-5.6,2-10,9.9-21.4c12.9-18.6,19.4-28,31.9-39.8
	c16.6-15.7,32.2-24.5,37.7-27.5c9.4-5.1,21.4-9.3,45-17.5c38.3-13.3,38.4-11.6,49.4-17.5c10-5.3,5.9-4.6,40.1-27.5
	c14.7-9.8,18.4-11.9,23.7-17.8c3.1-3.5,7.6-9.1,9.1-8.2c1.1,0.6,0.2,4.3,0,5c-2.7,10.6-14.9,17.1-16.7,18.1
	c-10.1,5.5-21.6,18.8-44.5,45.6c-23.7,27.6-12.4,29.9-33.6,52.6c-10.6,11.4-31.8,30.5-52.6,45c-5.1,3.5-10,6.7-15.5,13
	c-11.6,13.4-8.9,21.6-18.5,28.5c-8.5,6.1-19.2,5.6-27.9,5.1c-11.3-0.6-21-4.1-20.9-4.8c0.2-0.9,16.2,0.1,33,5
	c8.6,2.5,10.9,4.1,19.5,5.7c7.9,1.5,12.5,1.2,21.9,0.8c2.8-0.1,6.3-0.4,6.4-1.2c0.1-0.6-1.7-1.3-2-1.4c-5-1.9-10.3-18.6-9.4-31.6
	c0.3-4.8,2.4-20.6,39-53.4c14.9-13.4,13-8.7,58.5-44.5c11.7-9.2,21.1-16.8,35.9-26.1c8.5-5.4,20.4-12.3,30-17.9
	c19.1-11.2,23.5-13.3,30-19.9s10.5-13.1,12.5-12.1c1.6,0.8,1,6.5-1.2,10.9c-2.8,5.5-7.6,8.2-9,9c0,0-12.8,7.2-27.7,20.3
	c-5.5,4.8-3.7,4.9-24.2,35.7c-9,13.4-8.6,12.3-12.3,18.3c-10.4,16.8-9.8,19.7-18.5,34.5c-9,15.3-14.9,25.3-26.3,35.5
	c-8.1,7.3-12.3,8.6-18.1,16.7c-7.4,10.4-5,14.4-11.9,21.5c-10.9,11.3-26.5,11.2-27.8,11.2c-7.3-0.1-14.6-2.6-14.5-3.2
	c0.1-0.4,4.4-0.2,5.3-0.1c7.6,0.5,9.8,2.2,17.5,3.4c5.6,0.9,5.3,0.1,10.4,1.1c4.1,0.8,4.1,1.3,10.6,2.8c5.3,1.2,5.5,0.9,10,2.1
	c0.1,0.1,2.4,0.6,5.4,1.2c2,0.4,4.7,0.9,4.8,0.5c0.1-0.3-1.8-1.1-2.3-1.4c-4.2-2.4-3.3-18.3,4.4-36c9.5-21.9,24.4-35.2,29-39.2
	c11.6-10,24.4-15.7,50-27.2c23.8-10.7,32.3-12.4,50.9-23.4c6.5-3.9,13.3-9.5,26.9-20.8c8.9-7.4,13.8-12,14.3-18.7
	c0.5-7.1-4.3-13-3.5-13.5c0.7-0.4,4.7,3.5,6.4,8.5c2.9,8.8-2.6,18.1-5.6,22.8c-14.7,23.3-32.9,37.8-48.8,56.2
	c-7,8.2-2.2,3.9-22.4,31.4c-21.4,29.1-40.5,52.6-61.4,62.2c-12.7,5.9-22.3,4.9-24.3,4.7c-6.3-0.8-13.4-3.2-13.3-3.8
	c0.1-0.5,3.9-0.1,5.6,0.1c11.2,1.4,15.4,5.9,24.1,6.8c2,0.2,3.6,0.2,6.6,0.8c3.5,0.7,4.6,1.5,5.6,0.9c2-1.3,0.5-6.9,0.1-9.5
	c-1.7-10.8,7.4-21.1,12.9-27.3c10.3-11.7,23-15.2,42.5-20.7c5.8-1.6,9.8-2.4,31.2-6.2c29.1-5.1,43.7-7.7,45.2-7.8
	c33.5-1.6,54.9,9.6,65.5-2.3c2.7-3.1,5.7-8.8,7-8.2c1.1,0.5,0.7,5.4-1.2,9c-4.1,7.9-15,8.5-31.6,11.7c-6.2,1.2-20.7,4-32.4,8.2
	c-10.2,3.7-19.6,10-37.8,22.6c-21.7,15-24.4,18.8-39.4,26.9c0,0-16.8,9-33.9,10.7c-3.6,0.4-7.3,0.4-10.9-0.1
	c-7.6-1-13.7-3.9-13.6-4.1c0-0.1,2.5,0.5,7.5,1.7c5.4,1.3,6.4,1.6,8.9,2.1c7.5,1.5,9.3,1,10.3,0.6c2.7-1.1,4-3.4,4.5-4.2
	c4.8-7.6,20.9-17.2,32.5-19.9c7.4-1.8,16.8,0.9,35.7,6.1c7.6,2.1,8.4,2.6,31.9,10.5c23.1,7.7,24.5,7.9,30.7,10.5
	c13.4,5.7,13.8,7.7,29.8,15.8c30.1,15.2,33.8,10.6,50.3,22.5c8,5.7,12.4,10.6,24.6,17.6c8,4.6,12.3,6.1,12,7.6
	c-0.6,3.3-21.5,2-46.8,0.3c-27.6-1.8-28.1-3-44.5-3.2c-15.2-0.2-18.9,0.7-32.5-0.3c-16.5-1.2-16.3-3-30.1-3.8
	c-22.7-1.3-24.9,3.3-38.9,0c-9.6-2.3-6-3.9-28.4-13.2c-14.8-6.1-20.2-7-24.7-13.4c-6.5-9.3-7-16.9-7-16.9s-0.7-10.6-3.5-13.2
	c-0.3-0.3-0.7-0.5-1.1-0.6c-0.6-0.1-1.2-0.1-1.7,0.1c-1.2,0.4-3.7-0.2-9.1-1.5c-5.5-1.4-7.2-1.8-9.4-2.9c-0.6-0.3-2.4-1.1-2.3-1.3
	c0.1-0.4,12.7,1.8,21.9,7.9c2.8,1.9,10,7.2,22.8,40.4c7.1,18.3,5.5,18.3,10.8,30.1c4.4,9.6,5.7,10.4,19.3,33.6
	c13.5,23.2,13.2,24.4,19.3,32.8c11.2,15.5,21.2,24.1,20.5,24.9c-0.7,0.9-12.4-8.6-21.1-16.5c-7.6-6.9-9.5-9.4-16.6-15.2
	c-6.2-5.1-10.8-8.1-15.2-11.1c-5.3-3.6-20.3-13.9-31.5-23.8c-15.8-13.9-24.7-27.9-31.1-38c-7.5-11.8-11.5-18.4-13.3-28.7
	c-0.5-2.7-4.3-24.8,6.2-32.6c2.1-1.6,5.2-2.8,4.9-4c-0.4-1.5-5.3-0.5-13.5-2.9c-3.5-1-4-1.5-7.1-2.1c-4.2-0.8-5.3-0.1-8.6-0.8
	c-5-1-8.6-3.8-8.5-4.1c0.2-0.4,11.6,3.5,19.9,8.8c14,8.9,19.8,21.9,29,43.6c8.5,20,12.3,36.4,14.6,46.5c2.9,12.7,5.6,24.7,6.7,41.2
	c0.8,13.2-0.1,18.1,2.6,29c2.3,9.6,5.6,16.8,9.9,26c8,17.1,14.7,26.4,14,26.9c-1,0.6-13.4-15.4-22.8-28.4
	c-9.3-12.9-16.3-23.5-19.6-28.7c-13.9-21.6-11.8-21.1-19.6-31.9c-13.8-19.2-18.2-17.7-27.8-33.6c-7.3-12.1-4.5-12.4-14.6-31.6
	c-10.3-19.4-13.6-19.9-15.5-29.8c-2.7-14,0.3-31.4,9-35.6c2.1-1,6.4-2.1,6.2-3c-0.1-0.6-1.8-0.6-4.3-0.9c-1.8-0.3-4.4-0.8-9.5-2
	c-5.2-1.2-5.9-1.7-12.4-3.2c-4.7-1.1-7-1.7-7.4-1.2c-1.8,2.3,11.2,13.6,22.3,28c11,14.3,16.7,27,20.7,36.7
	c7.9,19.3,6.3,25.9,16,54.2c6.2,18.2,9.7,28.5,17.9,41.3c7.9,12.5,19,25.2,22.6,29.3c9.7,11,15,15.3,14.4,16
	c-1.4,1.7-34.7-22.2-62.8-44.5c-25.1-19.9-39-33-51.5-47.6c-12.5-14.6-18.2-24.5-21.8-31.6c-5.5-11.1-4.2-12.3-10.5-25.1
	c-11.2-22.8-18.2-24.5-16.9-33.8c0.5-4,3.6-16.9,13.5-25.1c1.4-1.2,3.3-2.6,3-3.8c-0.7-2.9-12.5,0.8-28.7-2.9c-6-1.3-9-2.9-10.3-1.4
	c-1.6,1.8,0.6,6.6,7.8,17.6c6.9,10.5,14.5,20.7,22.6,30.4c7.3,8.8,13.8,16.6,20.3,25c14,18.1,21.9,28.4,28.5,44.1
	c4.1,9.7,5.9,17.3,9,30.4c5,21.2,3.8,25.9,7,39.4c7.2,30.4,23.3,49.2,22.2,49.9c-1.1,0.7-13-20.8-35.3-45.2
	c-7.4-8.1-16.6-16.5-34.9-33.3c-16.6-15.3-19.2-16.9-34.5-31.2c-8.9-8.3-19.1-18.1-30.6-29.8c-11.4-11.7-20.6-22.1-30.4-35.9
	c-6.9-9.8-9.3-14.6-10.5-20.7c-0.4-2-3.6-18.7,6.2-32.4c7.2-10,17.7-13.5,16.8-15.6c-0.6-1.6-6.4,0.4-10.9,0.4
	c-17.8-0.1-28.5-3.6-40.6-5.9c-17.6-3.3-41.5-4.7-42.5-0.8c-1.1,4.2,25.2,9.1,56.9,32c13.2,9.6,24.7,17.9,36.3,32.4
	c11,13.7,9.3,17.1,25.7,46c10,17.7,21,34.8,33.1,51.1c11.6,15.7,18,24.3,28.5,34.3c24.7,23.5,48.6,32.4,48,33.5
	c-0.7,1.3-30.2-12.9-71.8-31.6c-33.2-14.8-35.4-15.2-48-21.8c-22.5-11.8-40-20.9-58.8-37.5c-11.9-10.5-34.5-30.5-47.1-62.6
	c-13.2-33.5-10.4-67.8-8.8-68c1.5-0.1,11,27,5.1,56.2c-3.5,17.8-11.6,30.4-26.1,53c-20.1,31.4-24.5,27.1-30.4,44.1
	c-4.6,13.2-5.7,26.5-17.2,44.9c-4.8,7.6-8.9,12.2-9.8,11.7c-1.4-0.8,5.1-10.9,6.2-25.4c0.8-8.9-0.9-15-1.9-20.3
	c-2.5-13.2-1.4-25.7,1-50.7c2.2-22.7,3.5-36.8,9.6-55.2c7.8-23.4,14.2-42.9,32-52.8c11.5-6.5,25.8-7.7,25.7-12.5
	c-0.1-3-5.8-5.4-7.8-6.2c-7.7-3.2-14.9-1.9-16.4-1.6c-18.5,3.4-37.5,1.1-56.2,2.9c-23.1,2.2-34.6,3.3-47.6,3.6
	c0,0-39.4,0.9-50.7,3.1C2.7,584.1,2.4,584.2,3.2,584.6z"/>
</svg>
