<svg xmlns="http://www.w3.org/2000/svg" viewBox="0 0 757.29 529.04"><defs><style>.cls-1{fill:none;}</style></defs><title>ContourResized</title><g id="Calque_2" data-name="Calque 2"><g id="Calque_1-2" data-name="Calque 1"><path class="cls-1" d="M3,251.09c11.31,2.17,50.7,3.12,50.7,3.12,13,.31,24.53,1.42,47.58,3.64,18.66,1.8,37.71-.46,56.16,2.86a29.65,29.65,0,0,0,16.38-1.56c2-.83,7.73-3.2,7.8-6.24.11-4.81-14.16-6-25.74-12.48-17.77-9.9-24.22-29.39-32-52.84-6.09-18.4-7.41-32.54-9.56-55.19-2.35-25-3.53-37.54-1-50.7,1-5.25,2.65-11.39,2-20.28-1.14-14.48-7.55-24.62-6.24-25.35.94-.52,5,4.14,9.75,11.7C130.32,66.17,131.46,79.5,136,92.62c5.93,17,10.33,12.71,30.42,44.07,14.5,22.64,22.56,35.22,26.13,53,5.85,29.2-3.58,56.34-5.07,56.16s-4.37-34.46,8.77-68c12.58-32.13,35.18-52.07,47.1-62.6,18.75-16.55,36.33-25.74,58.79-37.46,12.62-6.59,14.82-7,48-21.84,41.64-18.68,71.12-32.86,71.76-31.59.57,1.12-23.35,10-48,33.54-10.47,10-16.85,18.63-28.47,34.32a508.15,508.15,0,0,0-33.15,51.09c-16.43,29-14.74,32.27-25.74,46C275,203.8,263.52,212.12,250.3,221.71c-31.65,22.95-58,27.85-56.94,32,1,3.89,24.91,2.53,42.51-.78,12.1-2.28,22.84-5.78,40.56-5.85,4.51,0,10.25,1.95,10.92.39.92-2.15-9.63-5.6-16.77-15.6-9.75-13.65-6.63-30.4-6.24-32.37,1.22-6.06,3.65-10.92,10.53-20.67,9.76-13.82,19-24.21,30.42-35.88s21.68-21.5,30.62-29.84c15.28-14.25,17.85-15.9,34.51-31.2,18.33-16.82,27.48-25.24,34.91-33.34,22.33-24.38,34.18-45.94,35.29-45.24s-15,19.54-22.23,49.92c-3.21,13.53-2,18.2-7,39.39-3.12,13.14-4.91,20.74-9,30.42-6.56,15.66-14.51,26-28.47,44.07-6.47,8.4-13,16.23-20.28,25A333.85,333.85,0,0,0,331,222.49c-7.23,11-9.37,15.77-7.8,17.55,1.3,1.47,4.28-.07,10.27-1.43,16.19-3.67,28,0,28.73-2.86.32-1.23-1.61-2.62-3-3.77-9.88-8.19-13-21.11-13.52-25.09-1.27-9.3,5.71-11,16.9-33.8,6.28-12.76,4.95-14,10.53-25.09,3.57-7.1,9.33-17,21.84-31.59s26.41-27.67,51.48-47.58c28.12-22.34,61.4-46.22,62.79-44.46.57.71-4.72,5-14.43,16-3.6,4.08-14.65,16.81-22.62,29.25C464,82.44,460.49,92.72,454.27,111c-9.66,28.32-8.12,34.94-16,54.21a150.62,150.62,0,0,1-20.67,36.66c-11.08,14.43-24.1,25.73-22.33,28,.39.49,2.73-.06,7.41-1.17,6.53-1.55,7.17-2,12.39-3.22s7.72-1.74,9.45-1.95c2.48-.29,4.2-.33,4.29-.87.15-.87-4.11-2-6.24-3-8.7-4.23-11.68-21.64-9-35.56,1.93-9.9,5.24-10.37,15.5-29.84,10.13-19.19,7.33-19.53,14.63-31.59,9.62-15.9,13.95-14.43,27.78-33.63,7.79-10.81,5.74-10.34,19.6-31.88,3.33-5.18,10.27-15.81,19.6-28.67S532.55-.65,533.52,0c.73.51-6,9.8-14,26.91-4.3,9.21-7.6,16.36-9.94,26-2.65,10.92-1.76,15.85-2.64,29-1.11,16.45-3.83,28.47-6.72,41.24a257.66,257.66,0,0,1-14.63,46.5c-9.24,21.67-15,34.73-28.95,43.58-8.29,5.27-19.68,9.2-19.89,8.78-.13-.26,3.53-3.07,8.49-4.12,3.3-.69,4.41,0,8.58-.78,3.12-.56,3.64-1.14,7.12-2.14,8.21-2.38,13.12-1.42,13.45-2.93.27-1.21-2.75-2.42-4.87-4-10.48-7.77-6.7-29.88-6.24-32.57,1.75-10.3,5.81-16.86,13.26-28.66,6.39-10.13,15.33-24.07,31.1-38,11.18-9.9,26.2-20.17,31.49-23.79,4.42-3,9-6,15.21-11.11,7.12-5.84,9-8.34,16.58-15.21,8.7-7.88,20.37-17.36,21.14-16.55S582.73,51.5,571.54,67c-6.06,8.4-5.78,9.56-19.3,32.76s-15,24-19.31,33.64c-5.32,11.78-3.75,11.78-10.82,30.12-12.82,33.24-20,38.54-22.81,40.37-9.21,6.05-21.78,8.32-21.94,7.89a10.54,10.54,0,0,1,2.31-1.28c2.24-1.07,3.85-1.52,9.36-2.88s7.91-1.91,9.11-1.51a2.85,2.85,0,0,0,1.66.1,3,3,0,0,0,1.11-.64c2.81-2.6,3.47-13.21,3.47-13.21s.48-7.6,7-16.87c4.55-6.43,9.9-7.28,24.75-13.43,22.36-9.26,18.77-10.87,28.37-13.16,14-3.33,16.16,1.35,38.9,0,13.81-.82,13.55-2.58,30.13-3.8,13.59-1,17.3-.08,32.46-.29,16.36-.24,16.87-1.38,44.46-3.22,25.3-1.69,46.16-3,46.8.29.3,1.54-4,3-12,7.61-12.22,7-16.65,11.85-24.57,17.55-16.55,11.89-20.24,7.28-50.31,22.52-16,8.13-16.38,10.14-29.83,15.79-6.22,2.61-7.63,2.81-30.72,10.53-23.54,7.89-24.27,8.42-31.88,10.53-18.86,5.24-28.29,7.86-35.68,6.14-11.6-2.69-27.66-12.31-32.47-19.89a10.07,10.07,0,0,0-4.47-4.21c-1-.44-2.77-.94-10.33.59-2.51.5-3.55.81-8.94,2.11-5,1.2-7.48,1.81-7.51,1.72-.07-.25,6-3.05,13.57-4.08a47.62,47.62,0,0,1,10.87-.14c17.15,1.65,33.93,10.72,33.93,10.72,15,8.09,17.66,11.93,39.39,26.91,18.24,12.58,27.57,18.94,37.83,22.62,11.75,4.22,26.23,7,32.37,8.19,16.56,3.19,27.48,3.82,31.59,11.7,1.87,3.57,2.27,8.49,1.17,9-1.28.57-4.31-5.14-7-8.19-10.6-11.92-32-.65-65.52-2.34-1.54-.08-16.11-2.65-45.24-7.8-21.43-3.79-25.43-4.62-31.2-6.24-19.52-5.48-32.18-9-42.51-20.67-5.54-6.24-14.62-16.48-12.87-27.3.42-2.56,1.94-8.22-.13-9.49-1-.6-2.11.18-5.59.91a47.48,47.48,0,0,1-6.63.78c-8.7.9-12.94,5.41-24.05,6.76-1.73.21-5.5.59-5.59.13-.12-.62,7-3.05,13.26-3.77,1.95-.22,11.62-1.17,24.31,4.68,20.93,9.65,40,33.15,61.36,62.21,20.2,27.52,15.38,23.23,22.43,31.39,15.93,18.44,34.12,32.92,48.82,56.17,3,4.72,8.48,14,5.56,22.82-1.66,5-5.73,8.88-6.43,8.48s4-6.4,3.51-13.45c-.46-6.66-5.44-11.34-14.33-18.72-13.62-11.31-20.43-16.95-26.91-20.77-18.63-11-27.09-12.74-50.9-23.4-25.57-11.45-38.36-17.18-50-27.2a110.92,110.92,0,0,1-29-39.2c-7.69-17.73-8.62-33.62-4.39-36,.52-.29,2.36-1.07,2.26-1.39s-2.81.13-4.78.49c-3.05.56-5.28,1.15-5.36,1.17-4.51,1.17-4.74.91-10,2.15-6.55,1.52-6.46,2-10.63,2.82-5.06,1-4.85.23-10.43,1.08-7.71,1.17-9.89,2.89-17.55,3.41-1,.06-5.21.34-5.27-.1s7.18-3.07,14.53-3.22c1.28,0,16.88-.09,27.79,11.22,6.88,7.13,4.45,11.08,11.89,21.45,5.84,8.13,10,9.37,18.14,16.67,11.37,10.17,17.31,20.23,26.32,35.49,8.73,14.79,8.13,17.72,18.53,34.51,3.68,5.95,3.31,4.86,12.28,18.33,20.5,30.78,18.74,30.93,24.18,35.69a186.77,186.77,0,0,0,27.69,20.28,21.69,21.69,0,0,1,9,9C561,441,561.6,446.69,560,447.52c-2,1-6-5.46-12.48-12.09s-10.88-8.71-30-19.89c-9.62-5.62-21.46-12.54-30-17.94-14.82-9.35-24.16-16.91-35.88-26.13C406,335.64,407.92,340.35,393,327c-36.63-32.83-38.65-48.59-39-53.43-.92-13,4.42-29.66,9.36-31.59.29-.12,2.08-.76,2-1.37-.09-.83-3.63-1.1-6.43-1.23-9.36-.45-14-.68-21.9.78-8.57,1.58-10.94,3.23-19.5,5.72-16.82,4.89-32.79,5.85-33,5-.13-.68,9.61-4.22,20.87-4.81,8.67-.45,19.35-1,27.94,5.14,9.59,6.86,6.87,15.14,18.47,28.53,5.46,6.3,10.4,9.5,15.49,13.05,20.83,14.53,42,33.62,52.65,45.05,21.2,22.74,9.93,25,33.63,52.65,22.95,26.75,34.41,40.12,44.46,45.63,1.78,1,14,7.53,16.68,18.13.18.72,1.11,4.36,0,5-1.55.85-6-4.73-9.07-8.19-5.3-5.88-9-8-23.69-17.84C447.87,410.3,451.91,411,442,405.71c-11-5.89-11.14-4.21-49.43-17.55-23.62-8.23-35.62-12.45-45.05-17.55a183.46,183.46,0,0,1-37.73-27.5c-12.51-11.78-19-21.2-31.88-39.78-7.91-11.43-10-15.79-9.94-21.35,0-14.76,14.61-22.71,11.7-27.79-2.41-4.19-14.19-1.95-34,1.84-15.6,3-14.87,4.09-23,4.68-13.21,1-16.09-1.91-29,0A102.31,102.31,0,0,0,175.61,265c-3.34,1.2-5.76,2.32-5.85,2.14-.19-.39,9.64-7.46,19.3-10.14,25.88-7.18,52.48,16.64,58.5,22,16.11,14.43,12.87,20.79,31,36.66,15.83,13.86,20,10.53,34.41,22.44,20.88,17.29,14.43,26.34,38.9,55.57C368,413,373.52,412.27,390.78,435c6.77,8.9,8.83,12.83,19,25.83,13.47,17.16,23.3,27.42,22.62,28.08s-11.07-10.78-27.69-23c-12.7-9.35-22.69-14.46-39.39-23-12.67-6.49-29-14.86-51.48-22.62-28.59-9.88-30.18-6-46-13.65-6.28-3-29.28-14.43-45.63-38.61-16-23.59-8-33.28-27.3-65.52-10.7-17.85-20.94-27.88-19.5-29.25s16,6.59,23,20.67c5.81,11.57,4.05,22.08-.78,51.87-8.26,51-7.71,48.49-8.19,50.7-5.36,24.89-7.85,28.59-19.89,71.76-11.11,39.87-15.83,61.29-18.72,60.84-.54-.08-1.61-1-2-16.38-.55-25.52,2.18-34.92,2-46.41-.4-21.18-10.24-19.41-17.94-49.92a157.1,157.1,0,0,1-3.12-58.89c1.69-12.23,3.76-27.3,12.87-44.07,11.66-21.45,28.38-33.79,24.18-40.95-1.8-3.08-7.52-5.26-11.44-6a21.7,21.7,0,0,0-7.54,0c-10.16,1.71-28.21-1.69-46.54-3.64-13.61-1.45-25.71-1.66-49.92-2.08-.55,0-13.8-.7-40.3-2.08-2.52-.13-5-.9-7.54-.78A2.9,2.9,0,0,1,2,257.59c-2.27-1.17-2.45-5.92-1.3-6.5a3.54,3.54,0,0,1,1.44-.1A6.85,6.85,0,0,1,3,251.09Z"/></g></g></svg>