<?xml version="1.0" encoding="utf-8"?>
<!-- Generator: Adobe Illustrator 22.1.0, SVG Export Plug-In . SVG Version: 6.00 Build 0)  -->
<svg version="1.1" id="Calque_1" xmlns="http://www.w3.org/2000/svg" xmlns:xlink="http://www.w3.org/1999/xlink" x="0px" y="0px"
	 viewBox="0 0 1920 1080" style="enable-background:new 0 0 1920 1080;" xml:space="preserve">
<style type="text/css">
	.st0{fill:none;}
</style>
<title>Fichier 4</title>
<path class="st0" d="M3,557.6c11.3,2.2,50.7,3.1,50.7,3.1c13,0.3,24.5,1.4,47.6,3.6c18.7,1.8,37.7-0.5,56.2,2.9
	c1.5,0.3,8.7,1.6,16.4-1.6c2-0.8,7.7-3.2,7.8-6.2c0.1-4.8-14.2-6-25.7-12.5c-17.8-9.9-24.2-29.4-32-52.8
	c-6.1-18.4-7.4-32.5-9.6-55.2c-2.4-25-3.5-37.5-1-50.7c1-5.3,2.7-11.4,1.9-20.3c-1.1-14.5-7.6-24.6-6.2-25.4c0.9-0.5,5,4.1,9.8,11.7
	c11.5,18.4,12.6,31.7,17.2,44.9c5.9,17,10.3,12.7,30.4,44.1c14.5,22.6,22.6,35.2,26.1,53c5.9,29.2-3.6,56.3-5.1,56.2
	c-1.6-0.2-4.4-34.5,8.8-68c12.6-32.1,35.2-52.1,47.1-62.6c18.8-16.6,36.3-25.7,58.8-37.5c12.6-6.6,14.8-7,48-21.8
	c41.6-18.7,71.1-32.9,71.8-31.6c0.6,1.1-23.3,10-48,33.5c-10.5,10-16.9,18.6-28.5,34.3c-12.1,16.3-23.1,33.4-33.1,51.1
	c-16.4,28.9-14.7,32.3-25.7,46c-11.6,14.5-23.1,22.8-36.3,32.4c-31.7,22.9-58,27.8-56.9,32c1,3.9,24.9,2.5,42.5-0.8
	c12.1-2.3,22.8-5.8,40.6-5.9c4.5,0,10.3,2,10.9,0.4c0.9-2.1-9.6-5.6-16.8-15.6c-9.8-13.7-6.6-30.4-6.2-32.4
	c1.2-6.1,3.6-10.9,10.5-20.7c9.8-13.8,19-24.2,30.4-35.9c11.5-11.7,21.7-21.5,30.6-29.8c15.3-14.3,17.9-15.9,34.5-31.2
	c18.3-16.8,27.5-25.2,34.9-33.3c22.3-24.4,34.2-45.9,35.3-45.2c1.1,0.7-15,19.5-22.2,49.9c-3.2,13.5-2,18.2-7,39.4
	c-3.1,13.1-4.9,20.7-9,30.4c-6.6,15.7-14.5,26-28.5,44.1c-6.5,8.4-13,16.2-20.3,25c-8.1,9.7-15.7,19.9-22.6,30.4
	c-7.2,11-9.4,15.8-7.8,17.6c1.3,1.5,4.3-0.1,10.3-1.4c16.2-3.7,28,0,28.7-2.9c0.3-1.2-1.6-2.6-3-3.8c-9.9-8.2-13-21.1-13.5-25.1
	c-1.3-9.3,5.7-11,16.9-33.8c6.3-12.8,5-14,10.5-25.1c3.6-7.1,9.3-17,21.8-31.6s26.4-27.7,51.5-47.6c28.1-22.3,61.4-46.2,62.8-44.5
	c0.6,0.7-4.7,5-14.4,16c-3.6,4.1-14.7,16.8-22.6,29.3c-8.2,12.8-11.7,23.1-17.9,41.3c-9.7,28.3-8.1,34.9-16,54.2
	c-4,9.7-9.7,22.4-20.7,36.7c-11.1,14.4-24.1,25.7-22.3,28c0.4,0.5,2.7-0.1,7.4-1.2c6.5-1.5,7.2-2,12.4-3.2c5.1-1.2,7.7-1.7,9.5-2
	c2.5-0.3,4.2-0.3,4.3-0.9c0.2-0.9-4.1-2-6.2-3c-8.7-4.2-11.7-21.6-9-35.6c1.9-9.9,5.2-10.4,15.5-29.8c10.1-19.2,7.3-19.5,14.6-31.6
	c9.6-15.9,14-14.4,27.8-33.6c7.8-10.8,5.7-10.3,19.6-31.9c3.3-5.2,10.3-15.8,19.6-28.7c9.4-13,21.8-29,22.8-28.4
	c0.7,0.5-6,9.8-14,26.9c-4.3,9.2-7.6,16.4-9.9,26c-2.7,10.9-1.8,15.8-2.6,29c-1.1,16.5-3.8,28.5-6.7,41.2
	c-2.3,10.1-6.1,26.5-14.6,46.5c-9.2,21.7-15,34.7-29,43.6c-8.3,5.3-19.7,9.2-19.9,8.8c-0.1-0.3,3.5-3.1,8.5-4.1
	c3.3-0.7,4.4,0,8.6-0.8c3.1-0.6,3.6-1.1,7.1-2.1c8.2-2.4,13.1-1.4,13.5-2.9c0.3-1.2-2.8-2.4-4.9-4c-10.5-7.8-6.7-29.9-6.2-32.6
	c1.8-10.3,5.8-16.9,13.3-28.7c6.4-10.1,15.3-24.1,31.1-38c11.2-9.9,26.2-20.2,31.5-23.8c4.4-3,9-6,15.2-11.1
	c7.1-5.8,9-8.3,16.6-15.2c8.7-7.9,20.4-17.4,21.1-16.5c0.7,0.8-9.3,9.4-20.5,24.9c-6.1,8.4-5.8,9.6-19.3,32.8
	c-13.6,23.2-14.9,24-19.3,33.6c-5.3,11.8-3.7,11.8-10.8,30.1c-12.8,33.2-20,38.5-22.8,40.4c-9.2,6.1-21.8,8.3-21.9,7.9
	c-0.1-0.2,1.7-1,2.3-1.3c2.2-1.1,3.9-1.5,9.4-2.9c5.4-1.3,7.9-1.9,9.1-1.5c0.5,0.2,1.1,0.2,1.7,0.1c0.4-0.1,0.8-0.3,1.1-0.6
	c2.8-2.6,3.5-13.2,3.5-13.2s0.5-7.6,7-16.9c4.5-6.4,9.9-7.3,24.7-13.4c22.4-9.3,18.8-10.9,28.4-13.2c14-3.3,16.2,1.3,38.9,0
	c13.8-0.8,13.6-2.6,30.1-3.8c13.6-1,17.3-0.1,32.5-0.3c16.4-0.2,16.9-1.4,44.5-3.2c25.3-1.7,46.2-3,46.8,0.3c0.3,1.5-4,3-12,7.6
	c-12.2,7-16.6,11.9-24.6,17.6c-16.5,11.9-20.2,7.3-50.3,22.5c-16,8.1-16.4,10.1-29.8,15.8c-6.2,2.6-7.6,2.8-30.7,10.5
	c-23.5,7.9-24.3,8.4-31.9,10.5c-18.9,5.2-28.3,7.9-35.7,6.1c-11.6-2.7-27.7-12.3-32.5-19.9c-0.5-0.8-1.8-3.1-4.5-4.2
	c-1-0.4-2.8-0.9-10.3,0.6c-2.5,0.5-3.5,0.8-8.9,2.1c-5,1.2-7.5,1.8-7.5,1.7c-0.1-0.2,6-3.1,13.6-4.1c3.6-0.5,7.3-0.5,10.9-0.1
	c17.1,1.7,33.9,10.7,33.9,10.7c15,8.1,17.7,11.9,39.4,26.9c18.2,12.6,27.6,18.9,37.8,22.6c11.7,4.2,26.2,7,32.4,8.2
	c16.6,3.2,27.5,3.8,31.6,11.7c1.9,3.6,2.3,8.5,1.2,9c-1.3,0.6-4.3-5.1-7-8.2c-10.6-11.9-32-0.7-65.5-2.3c-1.5-0.1-16.1-2.7-45.2-7.8
	c-21.4-3.8-25.4-4.6-31.2-6.2c-19.5-5.5-32.2-9-42.5-20.7c-5.5-6.2-14.6-16.5-12.9-27.3c0.4-2.6,1.9-8.2-0.1-9.5
	c-1-0.6-2.1,0.2-5.6,0.9c-3,0.6-4.6,0.6-6.6,0.8c-8.7,0.9-12.9,5.4-24.1,6.8c-1.7,0.2-5.5,0.6-5.6,0.1c-0.1-0.6,7-3,13.3-3.8
	c2-0.2,11.6-1.2,24.3,4.7c20.9,9.6,40,33.1,61.4,62.2c20.2,27.5,15.4,23.2,22.4,31.4c15.9,18.4,34.1,32.9,48.8,56.2
	c3,4.7,8.5,14,5.6,22.8c-1.7,5-5.7,8.9-6.4,8.5c-0.8-0.5,4-6.4,3.5-13.5c-0.5-6.7-5.4-11.3-14.3-18.7
	c-13.6-11.3-20.4-16.9-26.9-20.8c-18.6-11-27.1-12.7-50.9-23.4c-25.6-11.5-38.4-17.2-50-27.2c-4.6-4-19.5-17.3-29-39.2
	c-7.7-17.7-8.6-33.6-4.4-36c0.5-0.3,2.4-1.1,2.3-1.4c-0.1-0.4-2.8,0.1-4.8,0.5c-3,0.6-5.3,1.1-5.4,1.2c-4.5,1.2-4.7,0.9-10,2.1
	c-6.5,1.5-6.5,2-10.6,2.8c-5.1,1-4.8,0.2-10.4,1.1c-7.7,1.2-9.9,2.9-17.5,3.4c-0.9,0.1-5.2,0.3-5.3-0.1c-0.1-0.6,7.2-3.1,14.5-3.2
	c1.3,0,16.9-0.1,27.8,11.2c6.9,7.1,4.5,11.1,11.9,21.5c5.8,8.1,10,9.4,18.1,16.7c11.4,10.2,17.3,20.2,26.3,35.5
	c8.7,14.8,8.1,17.7,18.5,34.5c3.7,6,3.3,4.9,12.3,18.3c20.5,30.8,18.7,30.9,24.2,35.7c14.9,13.1,27.7,20.3,27.7,20.3
	c1.4,0.8,6.2,3.5,9,9c2.2,4.4,2.8,10.1,1.2,10.9c-2,1-6-5.5-12.5-12.1s-10.9-8.7-30-19.9c-9.6-5.6-21.5-12.5-30-17.9
	c-14.8-9.3-24.2-16.9-35.9-26.1c-45.5-35.8-43.6-31.1-58.5-44.5c-36.6-32.8-38.7-48.6-39-53.4c-0.9-13,4.4-29.7,9.4-31.6
	c0.3-0.1,2.1-0.8,2-1.4c-0.1-0.8-3.6-1.1-6.4-1.2c-9.4-0.4-14-0.7-21.9,0.8c-8.6,1.6-10.9,3.2-19.5,5.7c-16.8,4.9-32.8,5.9-33,5
	c-0.1-0.7,9.6-4.2,20.9-4.8c8.7-0.5,19.4-1,27.9,5.1c9.6,6.9,6.9,15.1,18.5,28.5c5.5,6.3,10.4,9.5,15.5,13
	c20.8,14.5,42,33.6,52.6,45c21.2,22.7,9.9,25,33.6,52.6c22.9,26.8,34.4,40.1,44.5,45.6c1.8,1,14,7.5,16.7,18.1c0.2,0.7,1.1,4.4,0,5
	c-1.5,0.9-6-4.7-9.1-8.2c-5.3-5.9-9-8-23.7-17.8c-34.2-22.9-30.1-22.2-40.1-27.5c-11-5.9-11.1-4.2-49.4-17.5
	c-23.6-8.2-35.6-12.4-45-17.5c-5.5-3-21.1-11.8-37.7-27.5c-12.5-11.8-19-21.2-31.9-39.8c-7.9-11.4-10-15.8-9.9-21.4
	c0-14.8,14.6-22.7,11.7-27.8c-2.4-4.2-14.2-2-34,1.8c-15.6,3-14.9,4.1-23,4.7c-13.2,1-16.1-1.9-29.1,0c-6.1,0.9-12.1,2.3-17.9,4.3
	c-3.3,1.2-5.8,2.3-5.9,2.1c-0.2-0.4,9.6-7.5,19.3-10.1c25.9-7.2,52.5,16.6,58.5,22c16.1,14.4,12.9,20.8,31,36.7
	c15.8,13.9,20,10.5,34.4,22.4c20.9,17.3,14.4,26.3,38.9,55.6c16.1,19.3,21.6,18.6,38.9,41.2c6.8,8.9,8.8,12.8,19,25.8
	c13.5,17.2,23.3,27.4,22.6,28.1c-0.7,0.7-11.1-10.8-27.7-23c-12.7-9.3-22.7-14.5-39.4-23c-12.7-6.5-29-14.9-51.5-22.6
	c-28.6-9.9-30.2-6-46-13.7c-6.3-3-29.3-14.4-45.6-38.6c-16-23.6-8-33.3-27.3-65.5c-10.7-17.8-20.9-27.9-19.5-29.3
	c1.5-1.4,15.9,6.6,23,20.7c5.8,11.6,4,22.1-0.8,51.9c-8.3,51-7.7,48.5-8.2,50.7c-5.4,24.9-7.9,28.6-19.9,71.8
	c-11.1,39.9-15.8,61.3-18.7,60.8c-0.5-0.1-1.6-1-1.9-16.4c-0.5-25.5,2.2-34.9,1.9-46.4c-0.4-21.2-10.2-19.4-17.9-49.9
	c-2-8-7-30.6-3.1-58.9c1.7-12.2,3.8-27.3,12.9-44.1c11.7-21.5,28.4-33.8,24.2-41c-1.8-3.1-7.5-5.3-11.4-6c-2.5-0.4-5-0.4-7.5,0
	c-10.2,1.7-28.2-1.7-46.5-3.6c-13.6-1.4-25.7-1.7-49.9-2.1c-0.6,0-13.8-0.7-40.3-2.1c-2.5-0.1-5-0.9-7.5-0.8c-0.5,0.1-1.1,0-1.6-0.3
	c-2.3-1.2-2.5-5.9-1.3-6.5c0.3-0.2,1-0.1,1.4-0.1C2.4,557.5,2.7,557.6,3,557.6z"/>
</svg>
