<svg xmlns="http://www.w3.org/2000/svg" viewBox="0 0 879.96 684.88"><defs><style>.cls-1{fill:none;}</style></defs><title>Fichier 3</title><g id="Calque_2" data-name="Calque 2"><g id="Plante"><path id="Feuille_3" data-name="Feuille 3" class="cls-1" d="M.3.08c-2.23,1.48,8.42,22.67,20,40a218.33,218.33,0,0,0,25.5,31.5c12.91,13.13,17.63,14.5,29.5,25.5,19.82,18.35,15.65,22.84,34,42,24.65,25.73,34.35,19.9,54.5,44.5,6.23,7.6,10.83,14.91,21.5,21.5,11.7,7.22,22.59,8.55,22.5,12.5-.12,4.94-17.3,5.69-18,12-.59,5.25,10.69,10.77,17,13,14.65,5.17,29.35.15,29.5,1,.11.68-9.86,2-19,9.25-3.73,2.94-4.58,4.71-4.75,6.25-.7,6,8.68,11.43,9.25,11.75,16.16,9.05,41.51-4,41.5-4s-19.48,2.17-26,14.25c-3.39,6.27-3.46,15.52,1.25,20,4.29,4.08,11.19,2.89,20,1.25,20.51-3.84,30.5-13.46,35-9.5,2.11,1.85,2.19,6,.75,8.25-1.9,3-6.29,2.54-11,3.25-10.37,1.53-21.92,8.51-23,15.5-.88,5.65,5,12.17,10.75,15.5,23.47,13.51,61.41-16.73,64-12.5,1.41,2.31-8.21,14.16-21.25,17-7.08,1.54-9.51-.81-16.5,1.5-7.45,2.44-16.79,9.07-16.25,16,.5,6.47,9.43,10.46,14,12.5,8.59,3.83,19.58,5.72,36.75,2.75,23.54-4.08,39.16-13.93,39.5-13.25s-11.07,10.09-28.75,15.5c-14.52,4.43-24.33,3.37-30.5,11.75-.95,1.28-4.34,5.88-3,10.25,2,6.5,13.12,8.24,23.5,9.75,11.36,1.64,20.61,3,35,.5,30.63-5.31,49.87-22,50.5-21s-16.24,20.9-42.75,27c-7.73,1.77-15.3,2.15-22.75,8.5-5.65,4.8-12.37,14-9.75,20,3.71,8.48,25.38,8.54,41.5,4,14.83-4.18,16.53-9.87,38-20.5,20.68-10.25,37.52-14.09,37.75-13.5S444.58,416,427.8,428.83c-4.86,3.71-10,9-20.25,19.5-17.31,17.74-17.42,20.05-17,21.5,2.08,7.28,22.62,10.25,39.75,5.25,9.7-2.84,14.41-7.09,27.5-16.25,25.3-17.72,38.47-26.22,39.5-25s-11,16.75-29.34,29.58c-29.06,20.3-52.19,19-53.33,29.33-1,8.82,14.87,19.59,29.33,22.67,21.05,4.48,39.4-7.26,59.34-20,17.11-10.94,40.09-29.42,38-32.67-4-6.22-89.69,59.7-98.67,66.67-3.26,2.53-10,7.88-9.33,14,.75,7.19,11.35,12.61,20,14,11.25,1.8,20.13-3.08,30.66-8.67,42.82-22.71,31.89-14,48.67-24.66,35.15-22.28,54.9-42.48,56-41.34,1.79,1.86-13.67,26.73-40.67,44.67-10.78,7.16-22.66,12-46,21.33-37.5,15-49.23,16.54-49.33,22-.15,8.11,25.44,18.85,50.67,18,14.54-.49,27.64-7.13,42.64-13.92,7.51-3.4,12.76-6.25,22-11.41,37.65-21,56.47-31.44,56-32.67-1.46-3.82-44.46,1.31-73.33,30.67-2.13,2.16-21.84,22.21-16.67,31.33,5,8.84,31.89,4.63,46,.67a105.79,105.79,0,0,0,10.3-3.5c19.48-7.5,33.07-17.25,43-24.5,14.66-10.67,54.93-17.53,44-32a725.9,725.9,0,0,1-86,67.33c-12.75,8.56-21.89,14.13-20.67,18,2.29,7.29,39.75,4,68.67-6a195.43,195.43,0,0,0,33.36-15.55A192.91,192.91,0,0,0,694,582.74c20.4-16,28.64-29.62,30-28.66,1.67,1.16-6.23,24.46-26.66,40-15,11.38-33.4,16.11-43.34,18.66-20.6,5.29-30.52,3.59-34,10.67-3.66,7.47,2.2,20,10.67,26.33,16.79,12.64,44.11,1.5,62.67-6.33C745,621.6,781,583,779,580.41c-1.47-1.86-25,13-43.66,30-12,10.88-18.76,19.74-32,37s-12.9,19.5-12.34,20.67c4.3,8.84,44.16,5,73.34-14.67,6.6-4.46,15.18-11.75,32.33-26.33,16-13.64,22.23-19.78,22.67-19.34.72.72-12.86,20.62-35.67,36.67-22.11,15.55-38.15,17.13-38,24.33s16.61,14.84,32,16c22.94,1.74,40.74-12.73,76.33-41.66,9.14-7.43,20.14-17.18,24.34-33a52.39,52.39,0,0,0,1.66-13c.11-26.93-20.59-32.41-25.66-60.34-2.35-12.9.7-19.23-4.34-38-3.84-14.3-7.29-16.91-10-17.66-6.54-1.84-15.69,5.21-18.33,13.33-2.52,7.77,2.4,12,4,23,2.68,18.47-6.94,35.41-9,35-1.79-.36,1.83-14,1-39.67-.44-13.82-2.07-23.66-5.33-43.33-4.5-27.17-6.77-29.18-8.67-29.67C797,438,785,452.49,781.3,468.08c-3.22,13.56,2.32,17.62,0,33.33-2.63,17.73-12.71,32.95-16,32-3-.86.52-14.42,1.33-45,.91-34.24-2.66-46.57-4.33-51.67-4.75-14.43-14.51-32.28-20.67-31-4.6,1-6.18,14.31-9.33,41-1.52,12.85-1.36,15.79-3,28.67-.21,1.61-4.39,34.16-6.34,34-.55-.05-1.18-2.79-1-40,.17-34,.75-41.44-3-53.33-.8-2.54-9.6-29.78-20.33-29.34-8.83.37-16.84,19.39-18.33,34.67-1.41,14.38,3.55,19.25,1,35.67-1.92,12.31-6.8,23-8.34,22.66-1.75-.39,1.49-15.09,2.34-40,1.23-36.45-4.29-46.81-9-52.66-1.1-1.37-9.67-12-17-10-7.58,2.07-9.68,16.52-10.34,21-1.24,8.53.16,13.23.67,20,1.67,21.93-7.69,42-10.33,41.66-1.91-.27-1.8-11.44-1.67-25.33.17-17.41,1.56-19.73,1.67-33.33.16-20.34.08-34.47-9-41-3.94-2.84-10.42-4.86-14.67-2.34-4.84,2.87-3.66,9.78-5.67,31.34a240.84,240.84,0,0,1-3.66,26.33c-1.79,8.75-5.33,22.91-7,22.67-1-.16-1-5.81-.34-31.34.73-27.95,1-32.42-1.66-39.33-5.09-13.4-16.95-25.47-23.34-23.33-5.73,1.92-6.4,15.09-6.66,20.33-.76,14.9,4.71,18.95,2.66,30-2.17,11.76-10.92,21-13.33,20-2.61-1.08,2.9-14,4-38.33,1-21.2-2.38-29.42-5.67-34.67-.93-1.5-8.51-13.63-16-12.33-7,1.2-10.27,13.44-12.66,22.33-2.47,9.15-1.48,12-4.34,26.67-.92,4.74-3.35,17.14-4.66,17-1.84-.2-1-24.61-.67-35,.8-23.75,2.2-31.14-2.67-41-3.22-6.54-9.83-15.44-15-14.34-6.3,1.34-8.81,17.24-9,26.67-.24,12.46,3.52,16.51.67,25.67-2.66,8.54-9.11,15.19-11,14.33-2.07-1,2.3-10.45,4-29,1.47-16-.42-23.69-1.67-27.67-1.75-5.62-4.25-13.21-11.33-16.66-1.15-.57-6.62-3.23-11.33-1-3.64,1.71-5.81,5.85-8.34,21.33-2.77,17-2.62,27.28-3.66,27.33s-3.48-11.56-4.34-25.33c-1.31-21.26,2.13-29-4-36.67-3.45-4.3-9.66-8.2-14.33-6.66-2.31.75-5,3.09-9.67,22-2.56,10.38-4.88,22.35-5,22.33s8.5-23.22.34-45.33c-3.8-10.3-12.47-23.65-20.67-22.67-7.77.93-12.56,14.42-14.67,20.33a74.73,74.73,0,0,0-4,20s7.36-22.81-1.33-43.66c-4.26-10.23-12.51-20.32-17.67-19-2.57.65-3,3.8-7.66,14.66-2.63,6.11-7.94,18.46-9.67,18-2.05-.54,5-18-1-37.33-3.22-10.3-10-20.76-15-20-2.15.33-2.89,2.61-11.33,16-4.19,6.63-5.38,8.24-6.34,8-2.33-.6,1.07-11.17-2.66-23.33-2.66-8.68-9.37-19.54-15.34-19-8.4.75-12.56,23.94-15,23.33-1.81-.46,2.78-12.82-3.66-22.33-2.66-3.93-7.87-8.37-13.34-8-4.66.3-5.7,3.85-8.66,3.33-6.38-1.13-4.22-18-12.34-21.67-6.24-2.83-11.21,5.49-20.66,3-4.5-1.18-5.72-3.69-12.67-9.66-2.18-1.88-3.71-3.06-19-13.34-16-10.73-28.63-19.09-31-20.66-5.44-3.61-10-6.87-58.33-47.34C49.39,50.54,47,48.34,43,44.08c-3.62-3.84-13.43-14.5-27.66-29.67C3.87,2.22,1.19-.52.3.08Z"/></g></g></svg>