<svg xmlns="http://www.w3.org/2000/svg" viewBox="0 0 458.26 1066.79"><defs><style>.cls-1{fill:none;}</style></defs><title>feuille2</title><g id="Calque_2" data-name="Calque 2"><g id="Plante"><path class="cls-1" d="M458.24,1.27c-.62-2.17-20.11-2.81-35.33,8.67-7.24,5.46-11.48,12.12-18.67,28a412.88,412.88,0,0,0-19.33,51.33c-7.52,25.42-12.8,46.51-16.67,62.67-8.58,35.88-5,26-14,64.66-8.24,35.41-13.52,53.52-8,68.67.05.12,3.44,9.42,1.34,10.67-1.83,1.07-5.38-5.34-12-6-4.63-.47-10.41,1.9-12.34,6-2.49,5.3,2.12,12.11,9,22,7.29,10.46,14.64,17.64,14,18.33-.83.9-11.81-12.94-26-12.33-1.15.05-10.28.55-13.33,6.33-3.3,6.25,2.43,15,8,23.33,9.9,14.76,22.43,25.58,22.67,25.34s-9.25-11.48-23.67-18.34c-10-4.74-13.42-3.15-14.33-2.66-6.87,3.68-5.49,17.88-5.34,19.33C297,402.71,326,418.79,324.58,420.6c-.83,1.06-11.24-3.54-20.67-11-4.86-3.84-7-6.47-11-6.66-4.81-.24-10.89,3.09-12.67,8-2.52,6.94,5.17,12.73,16.67,32.33,6.43,11,12.52,23.64,11,24.67-1.26.85-6.84-6.94-21-19-5-4.25-10.29-8.4-18-11.34-5.34-2-10.82-4.13-14-1.66-5.31,4.12-.45,18.12.67,21.33,2.87,8.26,6.93,13.72,13,21.33,17,21.31,25.19,28.86,24,30.34s-11-2.83-19-10.34c-9.16-8.56-8.42-14.3-18.67-24.33-5.63-5.52-11.21-11-17-9.67-6.53,1.48-9.79,10.77-10.67,16.34-1.46,9.25,2.34,16.53,8,27,6.51,12,13.92,20.68,22,30,10.36,11.94,15.63,16.23,15,17-1,1.21-17.36-5.68-28.33-20.67-8-11-7.51-18.57-16-22.67-6-2.91-14.85-3.2-19,1.34s-2,12.59.33,20.66c4.22,14.44,11.54,25.29,19,34.67,14.6,18.34,26.51,27,25.67,28s-15.86-6.24-29-20c-9.45-9.9-10.46-15.29-20.33-21.67-3.15-2-16.26-10.51-23-5.66-5.55,4-3.83,14.89-3.34,18,1,6.55,3.7,12.16,18.67,30.66,6.55,8.1,12.34,15.22,22,25.67,12.47,13.48,19.22,19.35,18.67,20-.73.85-13.39-8-25-18.33-5.45-4.84-10.31-9.67-17-16.34-14.85-14.77-17.23-18.16-21.34-17.66-6.51.78-12.11,10.72-12.66,19.66-.25,4,.42,9.39,18.66,34,7.8,10.51,25.67,34,25.67,34,6.51,8.55,8.5,11.17,8,11.67-1.31,1.31-20.75-10.86-35.67-30.33-3.66-4.79-7.66-10.8-15.66-17.34-6.13-5-13.3-10.85-19-8.66-7.67,2.94-7.68,18.48-7.67,20,.14,15.65,10,27.31,17,35.33,11.9,13.67,18.56,13.88,32.33,30.67.89,1.08,11.41,14,10,15.33-1.68,1.64-20.36-13.56-35.33-29.33-9.66-10.18-14.49-15.27-17.67-19.67-6.91-9.59-8.7-15-14.66-16.67-6.22-1.71-14.25,1.45-17.67,7-2,3.29-3.07,8.46,4.33,26.67,5.6,13.77,8.4,20.65,16.67,32.33,17,24,38,41.71,38.67,41,1-1-41.7-37.64-48.34-43.33-6.39-5.48-15.15-12.78-24.33-10.67a18.68,18.68,0,0,0-12.33,10.34c-1.51,3.41-5.25,15.14,25,53a362.19,362.19,0,0,0,35,38s-21.72-17.2-50-48c-16.59-18.07-22.56-26.78-28-25-7.86,2.56-12.47,26.25-4.67,45.66,10.16,25.27,34.89,27.19,52.67,62,1.44,2.83,7.18,14.07,5,15.67-3.08,2.26-21.9-14.66-36-34.33-23.86-33.3-21.67-57-36-60-12.24-2.58-26.66,12-33.34,24C-4.7,838,20.4,884.55,23.58,890.27c8.48,15.25,17.84,24,28.66,49.67,1.88,4.45,10.26,24.33,7.34,26-3.88,2.21-29.82-17.17-34.67-42-.81-4.13-1.54-11.07-6.33-13.42-4.42-2.17-11.71-.17-15.5,4-7.93,8.71,0,26.33,17.5,81.75,2.11,6.67,5.1,16.41,5,29.25-.08,9.94-1.93,11.51-1,15.75,3.49,16,36.51,23.83,59.75,25.25,40.7,2.48,84.69-12.59,84.5-25-.11-7-14.34-14.29-26-15.5-6.75-.7-9.17,1.28-17,2.25-20.38,2.52-38.81-5.81-38.5-7.5.24-1.32,12,.78,41.5,3,90.24,6.81,104-3.5,110-10,8-8.69,12.74-22.29,8.25-28.5-5.06-7-18.48,0-50,2a222.9,222.9,0,0,1-68-6.25c-13.64-3.51-25.78-8.18-25.5-9.25.49-1.87,37.71,12.37,84.75,10,8.52-.43,69.72-4,76.25-28.75,2-7.7-.78-19.17-7-22-4.59-2.08-9.72,1.13-14.25,3.25-11.16,5.22-24,4.23-49.75,2.25-23.82-1.83-50.28-7.5-50-10.25.14-1.39,7.07-1.58,44.25-2,45.44-.52,58.17-.5,76.5-2,32.69-2.69,56.06-4.61,58.25-14,2-8.59-14.07-22-30.34-27s-19.75,2.38-56.33,3.33a241.78,241.78,0,0,1-48.67-4c-8.68-1.59-19.78-3.62-19.66-5.33.25-3.75,54-5,84.66-5,23.39,0,34.9.63,51-5.33,16.8-6.22,37.64-19.28,35.67-28.67-2.17-10.33-31.07-12.19-33.67-12.33-24.23-1.39-28.43,8.38-60,10.33a144.44,144.44,0,0,1-39.33-3c-7.87-1.71-25.7-6.28-25.33-9,.47-3.53,31-.6,82.66-3.67,31-1.84,44.05-4.33,57.34-12.66,15.25-9.57,30.22-26.48,26.33-34.34-3-6.15-16.54-4.55-36-3-69.08,5.5-96,1-96,3,0,3,61.45,17.55,113.67-10.33,7.42-4,20.89-7,26.33-18.67.73-1.56,5.36-11.89,1-18.66-9.93-15.43-60.21-2.64-60-.67s51.95,5,59-12.33c3.71-9.09-4.88-23.9-16-29-9.53-4.37-16.42.45-34.33,2.66-26.87,3.33-46.71-3.14-46.67-3.66.06-.7,35.57,6.12,74.67-6,8.29-2.58,20.05-7,29-18,5.4-6.63,13.47-20.17,8.66-27.34-4.13-6.17-15.94-4.82-29-3.33-20.68,2.36-25.51,8.23-42.33,8-12.25-.17-22.78-3.46-22.67-5,.19-2.49,28.1-.45,66.34-8.67,23.69-5.09,31.31-9.81,34.33-17s1.46-16.88-4-22.33c-6.44-6.42-16.54-5.15-33.67-3-12,1.5-15.67,3.55-32.33,6.33-3.52.59-19.83,3.46-20,2.67s19.69-7.16,42.67-12c29.09-6.14,40.43-5.21,45.66-14.33,3.86-6.73,3.14-16.7-1.66-21-4.43-4-10.31-1.29-29,.66-15.68,1.64-28.29,1.51-28.34,1s12.69-1.43,29.67-5c20.65-4.34,31.14-6.69,39-15.33,6.9-7.59,11.75-19.81,7.67-25-2.59-3.3-7.49-2.13-29.34-.67-7.69.52-25.53,1.71-25.66.67-.11-.85,11.54-3,33.33-8.67,11.9-3.07,15.39-4.22,19.33-7.33,7.65-6,14.39-17.39,11-23.33-1.27-2.25-4.17-4-31.66-4.67-9.73-.23-22.63-.31-22.67-1-.06-1.08,31.91,3.36,47.33-14,6.91-7.77,10.89-20.36,6.34-27-5.94-8.65-24.78-4.93-25-7.33s19.32-1.81,29.66-14.34c5.49-6.65,8.8-17.51,4.67-23.33-6-8.44-25.47-3.37-26-6.33-.49-2.76,16.9-4.14,22.33-15.67,2.92-6.2,2.26-15.07-2.33-19-6.19-5.3-17.21.39-18.67-2.67-1.73-3.65,14.58-10.6,14.34-21-.16-6.41-6.44-7.26-9.67-15.66-3.63-9.45,1-16.92,4-29.67,2.22-9.45,1.1-11.44,1.33-37.67.26-29.31.4-44,2.34-58,4.92-35.6,13.92-36.19,12.33-60.33-.62-9.37-2.58-18.54,0-32.67a115.61,115.61,0,0,1,7.67-24.33c3.76-8.91,6.49-15.38,11.66-21.67C441.84,5.31,458.84,3.34,458.24,1.27Z"/></g></g></svg>