<?xml version="1.0" encoding="utf-8"?>
<!-- Generator: Adobe Illustrator 22.1.0, SVG Export Plug-In . SVG Version: 6.00 Build 0)  -->
<svg version="1.1" xmlns="http://www.w3.org/2000/svg" xmlns:xlink="http://www.w3.org/1999/xlink" x="0px" y="0px"
	 viewBox="0 0 3456 5184" style="enable-background:new 0 0 3456 5184;" xml:space="preserve">
<style type="text/css">
	.st0{display:none;fill:#FFFFFF;}
	.st1{fill:none;}
</style>
<g id="Calque_1">
	
		<image style="overflow:visible;" width="5184" height="3456" xlink:href="IMG_9273.JPG"  transform="matrix(-4.371139e-08 -1 1 -4.371139e-08 2.265998e-04 5184)">
	</image>
</g>
<g id="Plante">
	<path id="Feuille_1" class="st0" d="M1183.6,1268.2c-13.5,27.7-11.6,46.1-9,58.5c3.3,15.5,8,19.1,6,30
		c-2.4,13.5-11.1,15.8-10.5,25.5c1,15.7,24.8,23.8,22.5,30c-2.1,5.5-21.9,0.4-24,6c-1.8,4.8,10.9,13.9,18.1,19.2
		c15.9,11.5,29,16.5,28.4,18.3c-0.9,2.7-29.2-9-36,0c-3.8,5.1-0.3,15.2,4.5,21c3.6,4.3,8.1,6.7,20.9,10.4
		c18.1,5.1,33.2,7.2,33.1,7.6c-0.1,0.9-52.7-10-58.5,3c-3.3,7.5,9.5,21.3,20.4,28.9c23,15.9,50.2,12.7,50.1,14.6
		c-0.1,1.3-12.2,3.7-26.6,1.4c-16.2-2.7-22.4-9.3-28.9-5.9c-5.6,3-8.7,12.3-7.1,19.6c5.3,25.1,66.1,32.8,65.6,34.4
		c-0.2,0.8-14-1.3-32.6-3.1c-10.6-1-15-1.2-17,1.5c-3.6,4.7,2,15.3,6.5,21.5c16.9,23.1,48.2,24.2,47.6,28.1
		c-0.5,2.9-15.4,5.7-29.2,1.8c-6.3-1.8-8.6-4-13-3c-7.7,1.6-15.1,11.3-13.9,19.1c0.8,5,5.1,9.4,35.5,22
		c24.4,10.1,38.9,14.5,38.6,15.6c-0.3,1.3-18.5-0.7-39.1-6.6c-22.3-6.4-30.7-12.6-35.9-8.4c-5.4,4.5-3.7,17.4,1.4,26.4
		c10.5,18.4,37.1,20.7,36.5,23.5c-0.7,3.3-37.8-6.2-43,4c-3.4,6.7,7.6,20.1,14,28c10.1,12.3,18,16.5,16.6,20.1
		c-2.5,6.5-28.1,0.2-30,6c-2.1,6.2,25.9,17.3,24,27c-1.6,8.3-23.2,6.4-25.5,15c-3.4,12.6,39.4,30.9,36,42c-2.4,7.7-24.5,4-27,12
		c-3.3,10.6,32.9,26.3,30,37.5c-2.8,10.7-38.3,6-40.5,15c-2.9,12.2,58.2,34.9,55.5,43.5c-1.8,5.9-31.5-1.4-34.5,6
		c-4.5,11.2,57.4,41.9,52.5,55.5c-3.4,9.3-35.1,2.4-39,13.5c-3.6,10.1,19.4,25.6,16.5,30c-3.1,4.6-29.2-10.9-33-6
		c-5.7,7.3,45.2,51.2,37.5,63c-4.6,7-26.5-3.1-30,3c-6,10.6,53.7,51.5,48,61.5c-3.6,6.3-29.4-6-33,0c-4.5,7.5,26.9,41.1,69,63
		c56.2,29.2,106.7,24.4,106.5,27c-0.2,3.1-76.1,15.9-153-16.5c-12.5-5.3-40.2-18.1-42-15c-2.3,4.1,46,26.1,45,55.5
		c-0.3,9.5-5.7,16.9-1.5,28.5c3.1,8.7,9.6,13.9,13.3,16.8c17.6,13.9,39.3,13.1,39.2,14.7c-0.1,2.1-37.7-2.4-40.5,6
		c-3.5,10.7,52.8,31.6,49.5,54c-1.4,9.3-11.8,10.3-12,18c-0.4,20.5,72.7,29.6,73.5,51c0.3,8.9-16.4,9.4-18,19.5
		c-2.2,13.4,24.5,24.7,102,64.5c30.7,15.8,52.9,27.5,61.5,19.5c6.3-5.9-0.5-17.2,6-34.5c4.9-13.1,13.7-19.5,24-28.5
		c16.9-14.6,64.9-56.3,57-78c-3.7-10.2-17.7-10.4-18-19.5c-0.3-8.8,12.9-13.5,22.5-22.5c9.3-8.7,8.5-15.7,18-64.5
		c8.2-41.9,11.2-51.5,4.5-63c-5.9-10.2-11.7-8.6-16.5-19.5c-8.6-19.6,5.5-36-3-45c-8.3-8.8-27.6,0.7-30-4.5
		c-3.7-7.8,39.5-32.1,36-40.5c-3.5-8.2-48.6,6.1-52.5-3c-3.3-7.6,26.6-21.3,24-37.5c-2.1-13.5-24.6-14.7-25.5-27
		c-0.9-11.9,19.8-15.1,27.4-36.6c3.9-11.1,4.2-26.7-3-31.5c-10.1-6.7-29.7,11.8-35,6.5c-6.1-6,17-32.8,8.5-44c-4-5.2-10.5-1.6-20-9
		c-1.9-1.5-9.8-8.1-12-18.5c-2.9-13.8,7-21.6,2.5-28c-4.8-6.9-18.4-1.1-22-7.5c-2.6-4.6,3.1-9.6,7.5-22c4.4-12.4,7.6-32.1,0.5-37
		c-7-4.8-20.8,6.5-23.5,3c-2.3-3,8.3-10.7,10-25c0.2-1.7,1.7-15.4-5-19.5c-5-3-13.4-0.1-25,4c-6.1,2.1-8.9,3.7-10,2.5
		c-2.3-2.4,7.3-10.6,8-23.5c0.4-7.2-1.8-17.2-8-20c-7-3.2-15.6,4.4-17,2.5c-1.9-2.5,15.4-13,20.5-31.5c2.2-8.1,3.4-22.2-4-28
		c-6.5-5.1-18.2-2.4-29,0c-8.9,2-13.9,4.6-15,3c-2.2-3.2,16.7-14.1,15-26.5c-1.3-9.4-13.8-14.7-14.5-15c-12.9-5.3-24.6,2-26.5-1.5
		c-2-3.7,12.4-10.5,17.5-26.5c2.4-7.5,3.8-20.3-2.5-25.5c-7.7-6.3-21.1,3.1-25.5-2.5c-3-3.8,2.5-9.2,2-23.5c-0.2-6.2-0.5-11.1-4-14
		c-5.1-4.2-13.9-1.7-16.5-1c-6,1.7-9.5,4.7-10,4c-0.8-0.9,6.6-5.6,10-13.5c4.1-9.6,2.2-24-5.5-29c-9.3-6-23.7,3.9-26,0
		c-1.8-3,7.6-8.3,9.5-19.5c1.3-7.5-0.8-17.9-7.5-21.5c-8.6-4.6-20.5,4.2-25,7.5c-11.6,8.5-18.3,20.9-17.5,21.5
		c1.1,0.9,22-18,30-44.5c1.2-4,7.9-26.1-0.5-32c-7.5-5.2-23.6,5-32,12.5c-11.4,10.2-17.2,23.1-16.5,23.5c0.9,0.6,15.7-22,31-45.5
		c10.4-16,14.8-23.6,12-27.5c-3.8-5.4-18.8-1.1-21-0.5c-7.6,2.2-9.3,4.4-21.5,10.5c-7.8,3.9-16.4,7-17,6c-0.6-1.1,8.3-5.5,18.5-16
		c5.2-5.3,10.1-10.4,13-18.5c1.7-4.7,5-13.7,0.5-19c-4.9-5.8-15.7-3.4-17.5-3c-4,0.9-7.9,3.3-15.5,8c-7.6,4.7-11.1,7.5-11.5,7
		c-1-1.1,18.6-14.5,24-37c0.9-3.8,3.4-14.2-1-17.5c-5.2-3.8-18.3,3.3-30.5,10c-5.9,3.2-10.4,6.2-11,5.5c-0.9-1.1,10-9.3,18.5-24.5
		c3.1-5.5,6.8-12.2,4.5-15c-2.4-2.9-9.4,0.4-24.5-1c-3.3-0.3-5.4-0.7-5.5-1.5c-0.2-1.4,5.8-3.5,11-5"/>
	<path class="st1" d="M1979.2,1684c-0.6-2.2-20.1-2.8-35.3,8.7c-7.2,5.5-11.5,12.1-18.7,28c-11.7,25.9-18,47-19.3,51.3
		c-7.5,25.4-12.8,46.5-16.7,62.7c-8.6,35.9-5,26-14,64.7c-8.2,35.4-13.5,53.5-8,68.7c0,0.1,3.4,9.4,1.3,10.7c-1.8,1.1-5.4-5.3-12-6
		c-4.6-0.5-10.4,1.9-12.3,6c-2.5,5.3,2.1,12.1,9,22c7.3,10.5,14.6,17.6,14,18.3c-0.8,0.9-11.8-12.9-26-12.3
		c-1.2,0-10.3,0.6-13.3,6.3c-3.3,6.3,2.4,15,8,23.3c9.9,14.8,22.4,25.6,22.7,25.3c0.2-0.2-9.2-11.5-23.7-18.3
		c-10-4.7-13.4-3.2-14.3-2.7c-6.9,3.7-5.5,17.9-5.3,19.3c2.7,25.4,31.8,41.5,30.3,43.3c-0.8,1.1-11.2-3.5-20.7-11
		c-4.9-3.8-7-6.5-11-6.7c-4.8-0.2-10.9,3.1-12.7,8c-2.5,6.9,5.2,12.7,16.7,32.3c6.4,11,12.5,23.6,11,24.7c-1.3,0.9-6.8-6.9-21-19
		c-5-4.2-10.3-8.4-18-11.3c-5.3-2-10.8-4.1-14-1.7c-5.3,4.1-0.4,18.1,0.7,21.3c2.9,8.3,6.9,13.7,13,21.3c17,21.3,25.2,28.9,24,30.3
		c-1.1,1.4-11-2.8-19-10.3c-9.2-8.6-8.4-14.3-18.7-24.3c-5.6-5.5-11.2-11-17-9.7c-6.5,1.5-9.8,10.8-10.7,16.3
		c-1.5,9.3,2.3,16.5,8,27c6.5,12,13.9,20.7,22,30c10.4,11.9,15.6,16.2,15,17c-1,1.2-17.4-5.7-28.3-20.7c-8-11-7.5-18.6-16-22.7
		c-6-2.9-14.9-3.2-19,1.3c-4.2,4.6-2,12.6,0.3,20.7c4.2,14.4,11.5,25.3,19,34.7c14.6,18.3,26.5,27,25.7,28c-0.9,1.1-15.9-6.2-29-20
		c-9.4-9.9-10.5-15.3-20.3-21.7c-3.1-2-16.3-10.5-23-5.7c-5.6,4-3.8,14.9-3.3,18c1,6.6,3.7,12.2,18.7,30.7
		c6.6,8.1,12.3,15.2,22,25.7c12.5,13.5,19.2,19.3,18.7,20c-0.7,0.9-13.4-8-25-18.3c-5.4-4.8-10.3-9.7-17-16.3
		c-14.8-14.8-17.2-18.2-21.3-17.7c-6.5,0.8-12.1,10.7-12.7,19.7c-0.2,4,0.4,9.4,18.7,34c7.8,10.5,25.7,34,25.7,34
		c6.5,8.5,8.5,11.2,8,11.7c-1.3,1.3-20.7-10.9-35.7-30.3c-3.7-4.8-7.7-10.8-15.7-17.3c-6.1-5-13.3-10.9-19-8.7
		c-7.7,2.9-7.7,18.5-7.7,20c0.1,15.6,10,27.3,17,35.3c11.9,13.7,18.6,13.9,32.3,30.7c0.9,1.1,11.4,14,10,15.3
		c-1.7,1.6-20.4-13.6-35.3-29.3c-9.7-10.2-14.5-15.3-17.7-19.7c-6.9-9.6-8.7-15-14.7-16.7c-6.2-1.7-14.3,1.5-17.7,7
		c-2,3.3-3.1,8.5,4.3,26.7c5.6,13.8,8.4,20.7,16.7,32.3c17,24,37.9,41.7,38.7,41c1-1-41.7-37.6-48.3-43.3
		c-6.4-5.5-15.1-12.8-24.3-10.7c-5.2,1.2-10.1,5.3-12.3,10.3c-1.5,3.4-5.2,15.1,25,53c18,22.5,35,38,35,38c0,0-21.7-17.2-50-48
		c-16.6-18.1-22.6-26.8-28-25c-7.9,2.6-12.5,26.3-4.7,45.7c10.2,25.3,34.9,27.2,52.7,62c1.4,2.8,7.2,14.1,5,15.7
		c-3.1,2.3-21.9-14.7-36-34.3c-23.9-33.3-21.7-57-36-60c-12.2-2.6-26.7,12-33.3,24c-18.9,34.1,6.2,80.6,9.3,86.3
		c8.5,15.2,17.8,24,28.7,49.7c1.9,4.5,10.3,24.3,7.3,26c-3.9,2.2-29.8-17.2-34.7-42c-0.8-4.1-1.5-11.1-6.3-13.4
		c-4.4-2.2-11.7-0.2-15.5,4c-7.9,8.7,0,26.3,17.5,81.8c2.1,6.7,5.1,16.4,5,29.3c-0.1,9.9-1.9,11.5-1,15.8
		c3.5,16,36.5,23.8,59.8,25.3c40.7,2.5,84.7-12.6,84.5-25c-0.1-7-14.3-14.3-26-15.5c-6.7-0.7-9.2,1.3-17,2.3
		c-20.4,2.5-38.8-5.8-38.5-7.5c0.2-1.3,12,0.8,41.5,3c90.2,6.8,104-3.5,110-10c8-8.7,12.7-22.3,8.3-28.5c-5.1-7-18.5,0-50,2
		c-10.3,0.6-37.2,1.7-68-6.3c-13.6-3.5-25.8-8.2-25.5-9.3c0.5-1.9,37.7,12.4,84.8,10c8.5-0.4,69.7-4,76.3-28.8c2-7.7-0.8-19.2-7-22
		c-4.6-2.1-9.7,1.1-14.3,3.3c-11.2,5.2-24,4.2-49.8,2.3c-23.8-1.8-50.3-7.5-50-10.3c0.1-1.4,7.1-1.6,44.3-2
		c45.4-0.5,58.2-0.5,76.5-2c32.7-2.7,56.1-4.6,58.3-14c2-8.6-14.1-22-30.3-27c-16.4-5.1-19.8,2.4-56.3,3.3c-4.6,0.1-24,0.5-48.7-4
		c-8.7-1.6-19.8-3.6-19.7-5.3c0.2-3.7,54-5,84.7-5c23.4,0,34.9,0.6,51-5.3c16.8-6.2,37.6-19.3,35.7-28.7
		c-2.2-10.3-31.1-12.2-33.7-12.3c-24.2-1.4-28.4,8.4-60,10.3c-6.9,0.4-21.5,0.9-39.3-3c-7.9-1.7-25.7-6.3-25.3-9
		c0.5-3.5,31.1-0.6,82.7-3.7c31-1.8,44-4.3,57.3-12.7c15.3-9.6,30.2-26.5,26.3-34.3c-3-6.2-16.5-4.5-36-3c-69.1,5.5-96,1-96,3
		c0,3,61.4,17.5,113.7-10.3c7.4-4,20.9-7,26.3-18.7c0.7-1.6,5.4-11.9,1-18.7c-9.9-15.4-60.2-2.6-60-0.7c0.2,2,51.9,5,59-12.3
		c3.7-9.1-4.9-23.9-16-29c-9.5-4.4-16.4,0.4-34.3,2.7c-26.9,3.3-46.7-3.1-46.7-3.7c0.1-0.7,35.6,6.1,74.7-6c8.3-2.6,20.1-7,29-18
		c5.4-6.6,13.5-20.2,8.7-27.3c-4.1-6.2-15.9-4.8-29-3.3c-20.7,2.4-25.5,8.2-42.3,8c-12.3-0.2-22.8-3.5-22.7-5
		c0.2-2.5,28.1-0.5,66.3-8.7c23.7-5.1,31.3-9.8,34.3-17c3-7.2,1.5-16.9-4-22.3c-6.4-6.4-16.5-5.2-33.7-3c-12,1.5-15.7,3.5-32.3,6.3
		c-3.5,0.6-19.8,3.5-20,2.7c-0.2-0.9,19.7-7.2,42.7-12c29.1-6.1,40.4-5.2,45.7-14.3c3.9-6.7,3.1-16.7-1.7-21c-4.4-4-10.3-1.3-29,0.7
		c-15.7,1.6-28.3,1.5-28.3,1c0-0.5,12.7-1.4,29.7-5c20.7-4.3,31.1-6.7,39-15.3c6.9-7.6,11.7-19.8,7.7-25c-2.6-3.3-7.5-2.1-29.3-0.7
		c-7.7,0.5-25.5,1.7-25.7,0.7c-0.1-0.8,11.5-3,33.3-8.7c11.9-3.1,15.4-4.2,19.3-7.3c7.6-6,14.4-17.4,11-23.3
		c-1.3-2.2-4.2-4-31.7-4.7c-9.7-0.2-22.6-0.3-22.7-1c-0.1-1.1,31.9,3.4,47.3-14c6.9-7.8,10.9-20.4,6.3-27c-5.9-8.6-24.8-4.9-25-7.3
		c-0.2-2.4,19.3-1.8,29.7-14.3c5.5-6.7,8.8-17.5,4.7-23.3c-6-8.4-25.5-3.4-26-6.3c-0.5-2.8,16.9-4.1,22.3-15.7
		c2.9-6.2,2.3-15.1-2.3-19c-6.2-5.3-17.2,0.4-18.7-2.7c-1.7-3.7,14.6-10.6,14.3-21c-0.2-6.4-6.4-7.3-9.7-15.7
		c-3.6-9.4,1-16.9,4-29.7c2.2-9.4,1.1-11.4,1.3-37.7c0.3-29.3,0.4-44,2.3-58c4.9-35.6,13.9-36.2,12.3-60.3c-0.6-9.4-2.6-18.5,0-32.7
		c1.9-10.7,5.6-19.5,7.7-24.3c3.8-8.9,6.5-15.4,11.7-21.7C1962.8,1688,1979.8,1686.1,1979.2,1684z"/>
</g>
</svg>
