<?xml version="1.0" encoding="utf-8"?>
<!-- Generator: Adobe Illustrator 22.1.0, SVG Export Plug-In . SVG Version: 6.00 Build 0)  -->
<svg version="1.1" id="Calque_1" xmlns="http://www.w3.org/2000/svg" xmlns:xlink="http://www.w3.org/1999/xlink" x="0px" y="0px"
	 viewBox="0 0 2486.4 3819.1" style="enable-background:new 0 0 2486.4 3819.1;" xml:space="preserve">
<style type="text/css">
	.st0{fill:none;}
</style>
<title>fougere_v2</title>
<path class="st0" d="M6.1,2053.5c0,0,248-47.8,439.1-93.3c56.3-15.1,117-28.9,166.5-44.9c-36-90.5-100.2-268.8-160.2-474.3
	c-63-198-114.6-367.9-158.4-514.5c37.5,101,65.4,177.2,100.3,275.4c49.8,147.9,87.2,271.7,140.2,424.7c25.4,84.3,64,188,101,257
	c41-89,131.3-282.9,198.6-422.2c51.5-94.9,122.4-213.8,209-352c100.4-185.8,169.4-336.8,209-443c-14.6,80.2-45.6,170.2-83.7,246.1
	c-57,121.7-124.3,239.4-209.8,382.4c-98.8,176.8-163.1,311.7-198.6,391.3c-30.5,60.4-70.5,137.4-106.5,223.3
	c66-17.9,247.9-30.5,318.4-19.5c36.7-36.3,72-87,101.2-135.6c109.1-133.7,171-236.8,234-349c47.1-124.8,84.2-250.1,161.4-433.4
	c13.5-28.6,37.7-71,50.6-99.6c-18.2,50-37.9,98.9-77,197c-24.3,67.9-36.9,112.3-47,145c-11,35.6-71.2,211.6-158,372
	c-89.6,144.6-169.4,246.4-223.7,316.6c27,1.5,138,19,184.5,31c65.2-52.8,125-112,178.5-176.5c146.6-144.1,283.5-313.5,378.7-481.1
	c37.8-60.9,73.8-142.9,92-193c-30.7,102.3-79.2,213.6-185.5,404.9c-44.7,60.2-110.4,137.5-165.7,200.7
	c-120.1,117.2-193.9,196.6-252,253c42.7,16.7,77.6,24.6,118.1,34.6c34.5,9,73.9,12.7,98.5,13.5c35.5-33,60.7-55.7,94.6-93.7
	c49.3-35.4,95.7-77.5,147.7-121.1c80.8-70.5,144.7-136.5,177-169.9c8.2-8.5,52.2-56,63.1-67.5c47.3-55,78.3-93.4,110.1-138.7
	c30.7-44,53.5-76.6,66.2-107.9c2.7-17.3-0.3-34.7-4.1-69c10.8,35,14.8,52.4,17.4,64.3c-9.3,26.7-20.7,53.7-33,76.3
	c-26.3,36.7-47.3,66.7-85.3,114.3c-66.6,78.4-126.4,150.2-159.5,187.2c-32.6,35.3-77.2,81.3-89.5,92.8
	c-35.4,33.1-55.4,47.9-105.6,88.7c-84.1,73-147,130.1-159.4,157.3c41.2,13.7,123.9,28.5,165.7,43.7c52.5-27,123.6-63.7,163.6-91.3
	c79-46,165.9-107.9,232.7-155.5c76.3-65.7,159.6-122,226.3-166.3c48.7-27.5,78-48,112.7-69.7c-58.7,51-128.7,97.7-218.2,154.8
	c-70.5,60.7-150.1,124.7-245.8,187.2c-73.7,48.2-175.3,115.2-219,143c60.2,9.7,123.1,25.7,205.8,40c144,24,232.1,45.4,397.3,92.7
	c146.8,43.2,226.2,66.7,340,108c181.8,72.2,274.8,118.5,350,160c42.1,28.9,94.3,63.2,142,104c-64.1-38.6-116.9-68.6-292-152
	c-157.4-68.8-260.2-109.5-372-144c-31.1-10.2-155-50.2-332-92c-222.7-49-359.4-72.5-447.9-90.5c70.6,71.7,187.4,202.4,441.9,421.8
	c127.7,104.2,210,171.7,209,173c-100.4-58.3-290.6-207-404-309C1883.2,2292,1763,2182,1679,2072c-61-16.8-116.8-22.4-178.9-29.4
	c25.9,98.9,39.4,155.4,69.4,257.8c46.3,170.4,87.9,295.3,123.6,389.7c45,110,85,194,135.4,279.3c-43.9-50-76.3-102.2-103.4-143.8
	c-38.1-73.5-73.5-181.5-122.3-328.1c-54.7-186.4-94.3-326.1-134.2-458.4c-60.5-16.2-159.8-44.4-214.6-51.1
	c27,76.1,64.6,159.3,121.5,288.4c78.8,178.7,132.1,397.7,126,641c-14.6,59.5-29.7,88.9-45,115c20.2-84.7,30.3-149.6,30.2-241.2
	c2.6-86.9-11.5-185.5-46.5-305c-55.4-160.1-158.9-361.2-237.9-520.2c-82.3-17.4-145.7-29.7-198-36.7c0,0,44.7,156.7,85.2,301.1
	c49.9,154,83.9,360.6,82.3,549.5c-8.7,44.2-42.5,191.1-69.3,252.5c32.9-116.5,50.2-225.4,62-349c-1.8-75.6-6.9-146.2-21.8-225
	c-26.4-112-56-190.7-90-281.7C1034.5,2115.1,984,1981,964,1934c-41.3-6.9-96.3-10.1-131.3-10.3c-59.8,0.7-124.5,1.2-184.4,11
	c19.2,47.3,65.8,150.4,107.3,219.3c40.4,85.4,72.2,180,114.8,306.8c64.4,200.5,128.3,404.9,163.3,564.9c-6,59-28.2,127.6-31.2,127.1
	c-3.4-0.6,9-82,14.1-136.4c-17.9-115.7-56.4-235.9-105.6-376.6c-58.2-163.8-93.8-264.5-126.9-369.8
	c-49.1-105.3-96.3-200.4-146.4-292.7c-13.5,43.4-35.2,137.8-54.9,240c-13.5,65-27.8,131.3-38.7,184.7
	c-23.4,96-45.1,164.1-66.7,240.7c-16.4,62.8-33.7,136.5-50.9,205.6c1.3-25.4,7.7-66.2,14.7-107c20.8-97.5,38.8-153.7,60.4-222.9
	c29.6-142.6,71.5-340.1,86-400.5c20.7-83.5,24.1-140.6,23.4-175.2c-45.2,7.9-257.8,57.5-395.4,87.7c-158.6,32.1-281.6,52.7-377,63.2
	c-178.9,16.6-404.7,39.7-505.1,35.7C-475.4,2113-265,2087.3,6.1,2053.5z"/>
</svg>
