<?xml version="1.0" encoding="utf-8"?>
<!-- Generator: Adobe Illustrator 22.1.0, SVG Export Plug-In . SVG Version: 6.00 Build 0)  -->
<svg version="1.1" id="Calque_1" xmlns="http://www.w3.org/2000/svg" xmlns:xlink="http://www.w3.org/1999/xlink" x="0px" y="0px"
	 viewBox="0 0 2486.4 3819.1" style="enable-background:new 0 0 2486.4 3819.1;" xml:space="preserve">
<style type="text/css">
	.st0{fill:none;}
</style>
<title>fougere</title>
<path class="st0" d="M1023.3,3819.1c-6.2-0.3-17.1-222.5,25-498c11.1-72.4,35.8-213.5,74-384c51.5-229.6,91-349.2,41-385
	c-21.6-15.4-45-7.7-128.5,13c-268,66.4-237,34.9-400.5,86c-69.2,21.6-135.2,46.1-241.6,64.5c-40.8,7-87.8,13.2-88.3,10.6
	c-0.7-3.5,82.9-18.2,205.6-50.9c132.4-35.3,145.9-47.6,240.7-66.7c70.8-14.2,74.9-9.6,151.6-25c134-26.8,208.6-41.6,213.3-72.6
	c6.5-43.1-119-95.5-244.3-147.9c-155.6-65-166.9-51.8-358.4-121.4c-200.1-72.8-256.8-112.3-376.6-105.6
	c-57.9,3.3-135.8,17.5-136.4,14.1c-0.5-3,57.8-15.6,71.3-18.1c159.1-28.7,303.5,40.8,620.7,150.2c220.5,76.1,237.8,72.5,306.8,114.8
	c98.2,60.2,156.3,124.5,190.6,104.1c17.1-10.2,17.4-69.3,17.3-187.1c-0.1-67.1-2.3-80.7-10-96c-25.6-50.3-83.7-64.7-145.3-82.9
	c-222.1-65.7-189.6-92.3-349.5-123.8c-47.7-9.4-127.8-24.7-232.5-23.2c-200,2.8-348.1,65-349,62c-0.6-2.2,76-39.8,187-60
	c271.8-49.4,537.6,44.7,615,73c123.7,45.2,205.4,93.9,242,59s-0.1-126.4-2-131c-50.2-122-203.1-172-507-267
	c-175-54.7-238.7-60.7-293.1-60.2c-128.8,1.3-240,39.2-241.9,32.2c-1.4-5.1,55.5-30.4,115-45c223.7-54.8,462.3,47.2,641,126
	c129.1,56.9,213,107.9,248,75c24.4-22.9,15.9-78.1-2-116c-23.2-49-78.3-103.2-467.1-186.3c-157.8-33.7-230.6-42.3-328.9-102.7
	c-85-52.3-147.1-117.7-143-123c4.9-6.4,98.2,84.3,255,154c161.8,71.9,173.5,24.7,414,105c179.8,60,204.8,45.2,213,34
	c15.4-21.1-15.8-68.1-34-95c-113.8-168.5-170.7-252.8-240-325c-198.1-206.3-310.9-402.5-309-404c1.3-1,68.8,81.3,173,209
	c315.5,386.4,365.6,450.8,393,438c38.8-18.2,1.3-176.8-61.7-444c-41.8-177-81.8-300.9-92-332c-29.9-91.3-71.8-218.1-144-372
	c-82.3-175.3-158.1-288.2-152-292c4.9-3.1,57.6,67,104,142c42.7,69,90.9,159.7,160,350c41.3,113.8,64.8,193.2,108,340
	c61.6,209,92.4,313.5,102,398c14,122.8,5.7,199.2,30.7,205.1c26.4,6.2,51.3-78.6,143-219c62.5-95.7,71.8-88.3,187.2-245.8
	c95.8-130.8,151.3-220.3,154.8-218.2c2.7,1.7-28.6,58.6-64,114c-69.1,108.3-101.8,129.8-172,225c-83.9,113.7-48.7,98.6-155,255
	c-52.6,77.3-87.2,119.3-89,188c-1,37.9,7.3,108.4,41,119c46.5,14.6,96.4-98.7,246-265c22.3-24.8-0.1,1.3,280-249
	c7.3-6.5,154.9-138.5,228.2-113.6c2.9,1,27.6,9.6,26.8,12.6s-25-3.5-46-3c-45.1,1.1-78.1,34.1-95,50c-69.1,65-52.4,16.8-206,154
	c-134.5,120.2-208.1,211.5-327,359c-35.5,44.1-83.1,104.7-96,194c-2.2,15-16.1,111.2,17,126c40.7,18.2,108.3-105.8,281-264
	c98.7-90.4,182.7-147,206.1-162.5c202.5-134.1,402.7-190.9,404.9-185.5c1.4,3.3-71.6,29.1-193,92c0,0-444.7,230.6-620.2,534.3
	c-25.3,44.1-40.8,93.1-45.5,143.7c-3.9,43.5-6.6,73.5,8.3,83.9c38.9,27.1,136.3-121.3,347.4-243.9c153.3-89,336.4-147,372-158
	c32.7-10.1,77.1-22.7,145-47c114.6-40.9,196-79.2,197-77c0.8,1.7-47.5,26.4-99.6,50.6c-218.3,101.8-282.2,94.3-433.4,161.4
	c-136.7,60.7-215.3,124.9-349,234c-56.9,46.4-118,101.4-149,190c-14.8,42.2-41.5,93.5-20,125c36.9,54.1,180.7,13.9,237.2-1.9
	c127.4-35.6,195.7-81.4,391.3-198.6c241.5-144.7,312.5-179.8,382.4-209.8c128.3-55.1,244-89.2,246.1-83.7c2.8,7-189.3,71.7-443,209
	c-199.3,107.9-179.9,121.7-352,209c-223.7,113.5-361.2,143.2-357,193c2.3,26.9,44.3,36.9,177,83.8c147.4,52,292.2,110.8,439.5,163
	c162.8,57.6,275.8,99.2,275.4,100.3c-0.5,1.4-225.1-53.2-515.2-167c-246.6-96.8-379.1-173-460.8-111c-31,23.5-40.3,56.1-57.7,125.9
	c-86.4,348.3-93.3,439.1-93.3,439.1C1015.4,3534.6,1030.4,3819.5,1023.3,3819.1z"/>
</svg>
