<?xml version="1.0" encoding="utf-8"?>
<!-- Generator: Adobe Illustrator 22.1.0, SVG Export Plug-In . SVG Version: 6.00 Build 0)  -->
<svg version="1.1" id="Calque_1" xmlns="http://www.w3.org/2000/svg" xmlns:xlink="http://www.w3.org/1999/xlink" x="0px" y="0px"
	 viewBox="0 0 3822.8 2486.4" style="enable-background:new 0 0 3822.8 2486.4;" xml:space="preserve">
<style type="text/css">
	.st0{fill:none;}
</style>
<title>fougere_v3</title>
<path class="st0" d="M0,1460.5l55.6,2.9c0,0.3,41-1.1,94.4-2.4c65.1-0.3,109.9-0.3,141.7-2.3c86.1-6.7,168.2-15,223.8-23
	c78.2-11.3,133.9-22.7,217.5-39.8c116.4-23.9,174.6-35.8,238.4-51.7c0,0,62.8-15.6,202.5-32.5c46.8-5.7,68.1-9.7,90.1-5.7
	c0,18.5-2,66-4,115.7c-13.8,61.4-17.1,72.8-23.2,101.4c-5.5,25.8-10.4,55.9-20.2,116c-11.2,68.6-11.1,72.6-17.9,110.5
	c-8.4,46.2-14.9,76.8-21.7,104.1c-9.8,33.1-22.6,67.5-36,109c-13,42.2-25.8,83.3-34.2,130.9c-4.2,15.7-10.3,68.1-10.6,88.3
	c4.3-10.5,8.8-27.9,13.7-46.5c8-29.9,16.2-59.8,24.2-89.7c12.5-47.4,26.5-98.7,40-136c12.7-45.7,21.4-80.2,27-105
	c6.1-28.4,11-57.7,20.8-116.4c4.2-25.4,11.2-65.1,14.7-90c9.1-58.4,14.8-86.4,24.8-122.5c11.3-42,25.8-105.3,34.7-147.8
	c27.9,33.2,79.3,104.8,107.9,161c25.3,49.6,36.7,84.3,61.7,155.1c22.7,63.5,46.1,126.3,67.7,187.3c29.3,85,50.3,149.5,71.2,208
	c20.8,55.2,43.8,116.9,59.1,168.7c16.4,55.9,19.2,91.5,22.6,142c3,24.1-0.3,47.9-8.3,82.9c-4.2,29.6-6.1,46.8-6.6,53.1
	c-0.4,5,11.6-38.2,18.9-71.1c3.2-35.3,7.8-82,6.4-129c-15.1-62.7-35.1-130.7-54.1-187.9c-16.1-48.6-35.9-113.5-60-188
	c-33.9-103.7-55-164.6-63.9-190.1c-15.4-53.9-39.9-116.7-65.6-175.4c-22.2-47.7-41.4-89-74.3-142c-19.3-31-42.7-70-57.4-105.7
	c57.4-10.1,108.5-7.9,171.9-8.4c54,3.4,77.9-2.6,111.2,1.1c26.7,32.3,50.3,60.5,83,145.3c37,95.9,55.5,143.9,64.5,169.4
	c34.2,96.8,51.3,145.3,59.2,180c5.8,25.3,21.6,99.2,23.4,197.2c0.9,55.2-2.6,110.4-10.5,165c-16.6,91.9-33.8,150.7-51.7,219.3
	c8.1-14.8,21.9-44.2,38-97.5c25.9-85.8,31.5-155.5,35.8-211.9c4.7-62.3,7.9-106,2-166c-6.8-68.2-21.4-117.2-44.9-195.7
	c-13.4-45-27.4-84.7-54.8-162.4c-49.5-140.5-56.9-187.6-48.1-210.6c25.9-1.3,38.6-3,61.3-3.3c36.8,6.5,72,12,103.5,13
	c21.7,15.7,43.7,44.2,78.4,122c26.4,59,53.8,119.5,81.6,179c28,59.8,38.7,106.6,62,179c22.8,71,34.2,106.6,45,153.5
	c13,56.6,18.2,96.2,26.4,159c4,48.4,5.9,111,2.5,149c-6.7,42.7-16.7,68.7-34.7,92.9c9.8-5.8,18.3-14.6,24.8-22.3
	c17.3-41.2,23.9-75.1,27.2-162.2c-1.9-38.6-4.4-85.2-16.2-154.8c-9.1-53.7-19-92.9-32-144c-17.5-68.9-28.3-111.1-47.4-165.2
	c-21.1-59.5-46.7-117.5-79.6-191.8c-38.7-87.6-50.6-142.2-57-166.5c41.6-5.4,65.6-3.5,93-2.6c29.2,3.6,64.8,13.8,94.5,28.1
	c24.5,45.9,42.7,86.7,62.5,143c11.6,34.4,24.8,92.4,38.2,148.4c18.2,75.7,27.4,113.6,38.3,155.1c17.7,66.9,32.2,115.2,47.5,165.5
	c28,92.6,42.3,139.3,55.2,163.3c39.8,62,108,132.7,123,143c1.3-1.2-30.2-29.5-65.2-83.3c-38.4-59-57.1-111.8-73.4-158.9
	c-7.6-22-9.2-28.9-42.4-154.7c-33.1-125.5-31.6-118.9-44.2-167.5c-37.9-146.1-32-129-38-148c-35.4-112.1-40-152-48-183
	c20.7-9.4,35.8-10.7,62-8c9.6,1,42.4,5.2,81,32c30.1,20.9,44.2,41.8,62,64c16.8,20.9,54.6,54.5,130.2,121.7
	c17.1,15.2,58.1,51.3,112.8,96.3c46.5,38.2,82.2,65.8,109.2,86.7c21.8,16.8,71,54.5,137.9,102.8c11.7,8.5,88,62.7,147.1,100.8
	c1.1-1.5-25.7-23.6-79.4-67.9c-66-54.4-116.4-94.6-124.6-101.2c-40.4-32.2-70.7-56-120.7-95.2c-81.4-63.8-118.4-92.9-118.4-92.9
	c-75.2-58.9-97.3-76.2-127.9-106.1c-46.6-45.4-63.7-85.6-76-102.8c13.8-8.5,57.6-8.7,128.8,0.6c112.4,18.5,195,43.2,201,45
	c72.6,20.2,191.6,51.5,276,73.5c80.8,23,170.8,50.1,268.9,82.6c65.7,24.1,135.8,48,207.9,77.7c80.5,26.2,164.9,58.3,228.1,87.2
	c73.3,42.2,103.9,60.1,129.3,83.2c4.1-4.5-16.8-32.6-39.3-54.7c-53.1-31.8-120.9-67.3-194.1-98c-65.2-22.9-119-44-204.9-79
	c-98.5-38.3-174-61.9-255-87c-67.5-21-133.5-39-265.5-75c-159.5-43.6-215.1-57.2-262.5-66c-60.1-13-113.6-21.8-171.1-28.1
	c-12.3-1.3-32.8-7.2-42.8-17c3.6-13.8,15.8-28.3,37.6-46c19-15.5,39.4-29.2,60.9-40.8c48.8-25.5,71.7-34.6,101.1-49
	c49.4-24.3,84.3-47.6,123.5-73.6c29.1-19.3,56.2-37.3,89.7-64.9c39.1-32.2,39.8-38.6,86-78c8.3-7.1,41.4-35.2,87-68
	c57.9-39.5,76.8-50.8,97.2-64.7c-22.6,11.1-77.9,40.1-143.1,84.5c-21.4,16.3-14.1,12.6-95.8,80.9c-63.5,53.1-82,67.2-89.3,72.7
	c-22.7,17.1-54.7,41-99,67.7c-34.9,21-71,40-108,57c-51.3,23.5-65.1,25.2-100,47c-30.5,19-40.3,27.9-55,37
	c-32.5,20.1-65.5,23.6-81,25c-27.5,2.6-55.3-0.4-81.6-9c-17-5.7-33.2-13.6-48.1-23.7l0,0c21.3-30.2,45.4-58.4,71.9-84.1
	c28.2-27.4,37.8-31.3,87.5-73.2c35.5-29.9,59.7-52.4,104.3-94c45.1-42,67.7-63,90.8-87.5c11.3-12,15.8-17.3,84.8-98.5
	c56.5-66.5,62.6-73.7,74.6-88.7c52.5-65.2,70.5-94.6,77.9-107c38.4-64.8,42.2-96.3,35.7-121.1c-3.1-11.9-4.2-16.8-12.6-26.8
	c3.4,13,6,29,4.4,49.4c-5.5,29.5-16.8,50.6-66.5,127.6c-23.7,32.5-45.2,61.8-81.6,104.8c-35.3,41.8-63.9,72.1-91.6,101.3
	s-52.8,55.7-88.3,89.3c-44.6,42.2-48,41-94.8,84.8c-14,13.1-12.3,11.9-93.9,92.5c-26.7,26.4-55.9,55.1-98,88
	c-33.1,25.8-49.6,35.2-71,39c-17.1,3.1-17-1.1-72.8-6.7c-53-5.3-68.8-7.8-90.2-18.3c-4-0.7-12.5-10.4-22.1-29.6
	c9-16.1,31-34.9,62.4-69.2c37.9-30.7,70.2-67.8,105.6-101.4c31.3-29.7,53.7-51,82.4-79.5c47.8-47.5,71.7-71.2,90.8-95.3
	c22.6-30.3,44.4-65.3,71.7-110.8c12.3-22.8,30.8-60.6,46.4-91.6c30.5-59.7,41-75.2,58.9-109.6c12.7-24.5,26.2-52.2,41.3-88.7
	c16.5-41.9,30.8-83.5,38.9-114.9c-6.8,13.3-19.1,41-31,67.2c-13.2,29-26,57.1-39.9,84.6c-18.7,35.2-39,69.5-54.4,98.2
	c-16.7,33.2-39.8,82.7-53,106.6c-34.8,52.9-18.2,27.9-54,81c-33.3,48.6-59.3,85.8-80,114c-23.8,29.5-43.6,49.3-83,89
	c-39.3,39.5-38.2,35.5-101,96c-31.1,30-55.6,54.3-95,86.7c-33.6,27.7-55.8,43-86,46.3c-18.1,2-20-2.4-55-6.8
	c-75.9-6-94.3-6.1-121.6-12.5c2.5-12.4,5.6-32.8,12.3-47.6c35.3-46.8,68.5-99.2,91.5-124.6c26.7-29.4,58.8-64.8,93.6-109.1
	c26.5-33.7,47.3-60.2,70.7-99.7c22.7-40.3,40.7-78.8,56-116.6c8.2-25.2,22.3-57.7,30.3-83.8c21.1-46.1,39.7-98.4,55-137
	c15.1-38.7,22.4-78,29.1-98.4c11.4-40.6,24.4-77.3,37.9-125.1c26.2-61.9,49.7-120.1,49.3-119.5c-11.7,18.2-22.7,38-50.6,99.6
	c-23.8,62-46.9,129.7-63.6,181c-13.4,42.4-29.2,77.6-49.1,122.4c-10.7,21.6-24.6,58.9-41.9,93.6c-16.4,38.6-28.1,74.8-41.2,106.8
	c-18.9,41.3-37.5,69.2-64.9,110.2c-10.8,16.2-36.4,53.7-74.5,100.4c-34.4,40-77.3,82.5-105,118.1c-22.1,36.5-41.3,70.7-63.5,105
	c-22,6.8-40,7.8-70.7,6.9c-69.3-0.1-146.3-0.5-204.3-0.1c-12-23-8-51-4.1-87c7.7-28.4,18.5-58,65.7-151.8
	c33.4-66.8,51.6-104.4,67.5-135c21.2-38,61.3-104,94.8-161.1c35.4-65.1,41.3-83.2,87.2-162.6c41.5-71.8,52.6-82.9,93.9-158
	c15.8-28.7,34.4-62.5,56.2-109.3c26.1-55.9,44-102.5,54.7-132C1901,72.4,1920.4,6.1,1921.3,0c-4.9,12.3-10.2,28-29.6,79.6
	c-11.5,29.8-30.4,76.9-56.2,132.3c-22.1,47.5-40.6,82.5-54.5,108.9c-18.2,34.3-35.7,65.7-68.6,122.2c-29,49.9-47.9,81.3-109,182.9
	c-54.6,90.8-82.3,136.9-100,169.1c-32.5,59-48.8,88.5-67.8,129.8c-8.1,17.6-37.8,83.1-75.1,157.4c-26.7,53.2-51.4,118.8-63.4,150.8
	c-14.5-30.5-21.1-119.7-43.9-178.7c-11.2-29-15.7-45.2-26.6-79.4c-10.6-33.3-22.6-67.5-46.5-135.7c-20.8-59.3-31.6-89.9-47.8-132.4
	c-23.5-61.5-28.2-68.5-50.3-126.8c-17.2-45.2-21.2-59.2-43.8-122.5c-33.2-93-54.3-145.3-74.7-197.7c12.7,54.9,31.1,118.9,36.4,136.7
	c4.6,15.6,21,70.2,45.7,143.5c18.6,55.3,34.2,98,47.1,133.4c3.5,9.7,11.2,30.6,37.9,101.5c23,61,33.3,88,54.2,143.4
	c51.5,136.3,57.3,153.4,62.3,184.2c9.2,56.1,10.1,111.2,6.2,146.2c-20.7,13.5-70.5,30.3-137.6,44.7c-280.1,60.1-284,60.8-285.3,61
	c-45.3,8.2-113,21.3-195.9,40.3c-80.8,13.8-162.3,23.1-244.1,27.7c-95.6,5.3-147.9,9-197,10.3c-65,3.2-169.5,8-193,9.7
	C0,1449.5,0,1457,0,1460.5z"/>
</svg>
