<?xml version="1.0" encoding="utf-8"?>
<!-- Generator: Adobe Illustrator 22.1.0, SVG Export Plug-In . SVG Version: 6.00 Build 0)  -->
<svg version="1.1" id="Calque_1" xmlns="http://www.w3.org/2000/svg" xmlns:xlink="http://www.w3.org/1999/xlink" x="0px" y="0px"
	 viewBox="0 0 667.8 424.3" style="enable-background:new 0 0 667.8 424.3;" xml:space="preserve">
<style type="text/css">
	.st0{fill:none;stroke:#000000;stroke-miterlimit:10;}
</style>
<title>Fichier 1</title>
<path class="st0" d="M667.3,229.5c0-0.2-0.4-1-28.3-8.7c-19.2-5.3-28.8-7.9-37-9.7c-12.4-2.7-24.7-4.4-49.2-7.7
	c-18-2.4-31.6-4-41.4-5.1c-25.5-2.9-17.6-1.6-49.9-5.1c-24-2.6-29.7-3.4-40.2-2.2c-3.2,0.4-4,0.6-23.5,3.5c-20.3,3-24.9,3.6-25.5,2
	c-1.2-3.1,13.9-11.9,17-13.7c14.4-8.4,24.8-11.3,36.7-15.7c14.4-5.4,28.5-11.9,42-19.3c15-8.3,25.3-15.9,40.7-27.3
	s30.8-24,30.3-24.7s-12.6,8.8-33.7,21c-11.8,6.9-23.6,13.7-39.7,20.3c-19.2,7.9-20.9,5.7-40.3,14.3c-10.2,4.5-20.2,9.7-29.7,15.7
	c-11,6.9-16.7,10.5-23.7,17c-5.9,5.5-7,7.8-11.7,9.8c-6.8,3-10.8,1.1-23.5,1c-14.6-0.1-22.9,2.8-23.5,1c-0.4-1.3,3.5-3.2,8.7-6.5
	c6.8-4.4,13.9-11.3,28-25c10.5-10.2,8.7-9,16-16c15.3-14.6,17-13.8,27.8-24.5c9.3-9.3,17.8-19.3,25.5-30c1.3-1.8,5.4-7.7,13.5-19.5
	c14.6-21.2,17.2-25.4,16.5-26c-1.1-1-10.3,7.9-12,9.5c-2.8,2.7-5.3,5.3-7.6,7.8c-5.2,5.8-10,11.8-14.4,18.2
	c-4.3,6-12.7,13.6-29.3,28.8c-4.5,4.1-14.4,13.1-27.7,24.3c-14,11.9-18.2,13.8-27,22.8c-7.7,7.9-11.6,11.9-16,18.8
	c-6,9.3-5.6,12.8-10.5,15.7c-4.2,2.5-6.7,1.3-24,1c-13-0.3-15.9,0.5-17-1.5c-2.1-3.8,6.8-10,17-25.3c6.3-9.5,9.7-17.4,15.5-30.8
	c4.3-10,3.7-10,11.5-30c5.7-14.5,8.6-21.9,11.5-27c2.3-4.1,3.2-5.1,17.5-24.5c9.4-12.8,14.1-19.2,15.5-21.5
	c9.7-16.3,14.3-32.9,13-33.5c-0.5-0.2-1.8,2-10.5,16C347,30.1,343,36.4,339.8,41c-3.6,5.2-7.9,10.6-16.5,21.5
	C309,80.6,308.6,80.1,304.8,86c-4.6,7.1-7.5,13.4-13.5,26c-5.5,11.6-5.8,13.7-10.3,21.8s-5.1,7.8-10.8,17.8
	c-6.2,10.8-9.3,16.2-11.3,21.8c-3.8,10.9-2.9,15.9-8.3,20.8c-3.1,2.8-6.3,3.8-10.5,5c-10.8,3.1-16.6,1-29.5,1c-17.1,0-26,3.6-27,1
	c-0.7-1.9,3.6-4.2,9.5-10c10.3-10.2,15.2-21.1,20.5-33c2.9-6.7,5.4-13.5,7.5-20.5c2.5-7.9,4.5-15.9,6-24c3-16.7,5.4-29.9,2-45.5
	c-3.1-14-5.5-21.8-5.5-21.8c-1.7-5.3-3.1-9-3.3-14.8c-0.2-6.2,1.3-7.2,1.3-12.5c-0.2-10.6-6.3-18.8-7-18.5s3.6,7.4,3,18.3
	c-0.3,6.1-1.9,7-2,12.8c-0.2,7.2,2,11,3.8,17c2.3,8.2,2,14.7,1.3,27.8c-0.5,9.8-2.1,19.5-4.8,29c-3.4,11.8-7.5,19.6-15.8,35.3
	c-10.8,20.3-13.3,21-16.8,32c-4.2,13.6-3.3,22.6-6.3,23c-4.4,0.6-10.6-19.3-12.3-24.5c-4.6-14.8-3.3-17.7-7.3-34.3
	c-3.3-13.1-7.6-25.9-12.8-38.2c-6.2-15.2-6.3-12.1-10-22.5c-5.6-15.9-5.8-24.4-14-35.8c-3.8-5.3-8.6-10-9.3-9.5s4,7,7.8,16
	c4.8,11.4,3.3,16,6.5,31.3s5.1,13.1,9.5,31c3.5,14.4,2.2,15.1,6,32.8c3.6,16.5,5.4,24.8,9.8,33.3c8.8,17.1,19.3,22,17.3,26.5
	c-2,4.3-12.9,2-38-0.5c-0.7-0.1-18.4-1.3-53.8-3.8c-48.1-3.3-42-2-45.8-2.8c-13.1-2.5-24.4-6.3-28.8-1c-2.2,2.9-2.4,6.9-0.5,10
	c3.1,4.6,11,3.4,29.8,1.8c17.4-1.6,26.1-2.4,35.3-2.5c6.3-0.1,15.1,0.5,32.8,1.8c22.8,1.6,21.2,1.9,32.5,2.5c21.2,1,34.8,0.2,35,2
	c0.1,1.2-5.4,1.6-13,5.8c-2.1,1.1-7.7,4.4-16.5,14c-6,6.5-8,10-15.8,20.8s-12.2,16.8-18.5,24.3c-6.7,7.8-12.8,15-22.5,22.5
	c-6.3,4.9-8,5.2-23,14.3c-13.9,8.4-32.1,19.4-31.3,21s18.4-5.7,30.3-11.3c11.1-5.1,21.8-11.1,32-17.8c8.5-5.7,16.6-11.8,24.3-18.5
	c12.1-10.4,10.3-10.9,26-25.5c14.8-13.8,18.8-15.6,23.8-24.3c5.9-10.2,7.3-19.7,8.3-19.5s-2.3,11.3-2,25.5
	c0.2,9.9,2.5,18.2,7.3,34.5c5.2,18.1,7,19.5,12.3,37.8c3.5,12,5.5,20.8,7.3,28.8c5.3,23.7,6,33.5,6.3,38c0.4,8.3,0.7,13.9-1,21.3
	c-3.2,14.1-10.7,23.1-10.5,23.3s9.9-10.3,15.3-26.5c1.6-4.9,3.6-12.5,3.3-39c-0.2-13.9-0.4-28.5-3-48.5c-2.2-16.5-4.8-27.8-9-45.5
	c-4.5-19.3-6.9-29-11.3-36.3c-5.8-9.6-12-14.8-10-18.5c1.5-2.9,6.3-1.9,23-2.5c13.2-0.5,19.8-0.7,25.8-1.8c11.5-2,18-5.2,20.8-2
	c1.6,1.9,0.2,4,0.8,8.3c1,7.3,6.8,11.6,12.5,16.5c3.7,3.2,9.2,8.9,20.3,20.3c7.9,8.2,13.4,15.5,24.3,30.3c8,10.8,12,16.3,16,23.3
	c5.5,9.7,8.5,17.4,13,29c5.2,13.3,9,25.3,11,32.3c2.8,9.5,4.5,16.3,8.8,28c0.5,1.5,5.3,14.7,6,14.5s-2.2-9.9-8.5-33.5
	c-6.5-24.5-6.1-23.5-10-37.8c-6.2-22.5-9.3-33.8-11.5-39.3c-6.1-14.9-14.1-28.9-23.8-41.7c-7.8-10.5-16.4-20.4-25.8-29.5
	c-10.3-10-18-15.6-16.5-19c1.1-2.5,6.1-0.8,20-2c14.3-1.2,18.1-3.8,22.9-0.8s4.1,7.4,7.6,14.1c2.1,3.9,5.4,8.2,28.5,21.3
	c19.2,10.8,22.3,10.9,35,19.3c7.7,5.1,12.9,8.5,18.8,14.8s13.3,14,15.8,25.8c2,9.3-1.4,10.3,1.3,21c1.7,6.6,4.5,12.4,7.5,18.5
	c2.2,4.4,5.3,10.2,5.8,10s-4.7-9.1-7-21.5c-2.3-12.8,1.1-15.3-0.8-27.5c-1.5-9.3-5-18.2-10.3-26c-1.8-2.6-6.1-8.8-25-22.8
	c-8.8-6.5-13.3-9.2-30.5-20.5c-26.6-17.4-31.9-21.6-31-24.5c1-3.1,8.5-3.3,18.5-3.5c8.5-0.2,14.1-0.3,18.6,3.3
	c4.3,3.4,4.4,7.4,6.6,12.5c4.9,11,13.4,12.1,30.5,24.3c10,6.9,19.2,14.9,27.3,24c7.9,9.1,15.2,18.6,22,28.5
	c4.4,6.5,7.4,11.3,13.8,15.8c4.3,3,12.1,7.2,13.5,8c5.7,3.1,8,4,10.8,7c4,4.4,4.9,8.9,5.5,8.8s0.6-6-2-11.3
	c-5.1-10.2-15.3-8.8-25-17.8c-6.7-6.2-4.6-9.5-12.3-23.5c-5.2-9.5-11.1-16.3-23-29.8c-14.2-16.1-21.3-24.2-31.8-31
	c-13.1-8.5-24.2-11.5-23.5-14.5c0.6-2.6,9.6-2.9,14.8-2.5c7.1,0.5,11.8,2.5,16,4c8,2.9,14.5,3.9,27.5,6c7.4,1.2,16.1,1.3,33.3,1.5
	c16.9,0.2,19.6-0.2,38.3-0.1c7.2,0,17.7,0.1,31.2,0.6c14.3,0.5,26.6,0.9,42.5,2.5c12.4,1.2,22,2.7,35.8,4.8c9.8,1.5,15,2.4,30.5,4.8
	C666,230,667.2,229.8,667.3,229.5z"/>
</svg>
