<?xml version="1.0" encoding="utf-8"?>
<!-- Generator: Adobe Illustrator 22.1.0, SVG Export Plug-In . SVG Version: 6.00 Build 0)  -->
<svg version="1.1" id="Calque_1" xmlns="http://www.w3.org/2000/svg" xmlns:xlink="http://www.w3.org/1999/xlink" x="0px" y="0px"
	 viewBox="0 0 450.9 390.5" style="enable-background:new 0 0 450.9 390.5;" xml:space="preserve">
<style type="text/css">
	.st0{fill:none;stroke:#000000;stroke-miterlimit:10;}
</style>
<title>Fichier 1</title>
<path class="st0" d="M0.9,193c1.6-3.3,8.3-3,14-2.8c11.2,0.5,22.4,0.5,33.5,1.4c9.5,0.8,19,0.9,28.5,0.4c-2.2-9.5-5.9-18.5-11-26.8
	c-1.8-2.8-5.7-7.9-13.5-17.9c-10.9-14-11.3-14.2-14-18.1c-6.5-9.5-11.2-16.3-13.5-25.3c-5.2-20.5,5.8-39.5,6.8-39.3
	s-6.4,14-1.3,29.3c1.7,5.1,6.6,11.2,16.2,23.2c8.4,10.5,9,10.3,14.8,17.8c9,11.7,13.8,17.8,17.3,27c4.9,13,4.2,23.5,5.5,23.5
	s1.3-10,3.3-21.5c0.8-4.4,2.2-11.4,13.5-39c7.9-19.3,11.8-28.9,18-41.2c10.5-21,15.8-31.5,20.9-38.7c6.5-9.1,11.5-14.3,12.2-23.7
	c0.8-10.9-4.8-20.7-4-21c0.5-0.2,3.2,3.6,4.8,8.4c3.3,9.5,1.5,19.4-6.6,41.1c-5.6,15-5.7,12.9-9.3,23c-5.4,15.4-4.6,18.7-11.3,42.5
	c-3.9,13.9-5.8,20.9-9.2,28.8c-4.1,9.5-8.7,18.8-13.8,27.7c-7.2,12.2-11.8,17-9.8,20.5c0.9,1.6,2.9,2.6,16.5,2.8
	c15.4,0.2,23.1,0.3,26.3-2c6.7-5,3.2-11.7,10.4-28.2c3.5-8,5-8.1,12.4-20.5c6-10.3,11.4-21,16-32c5.8-13.4,10.8-27.1,15-41
	c3.8-12.2,7.1-25.9,8-29.5c3.7-15,5.2-22.6,5.8-22.5c0.9,0.1-1.2,18.5-2.8,30c-1.3,9.8-2.8,19.9-5.8,33.3c-1.8,7.9-3.8,15-7.8,29
	c-4.7,16.5-7,24.8-8.8,29.1c-4.7,12.2-11.1,23.7-19,34.1c-6.6,8.6-16.2,18.6-13.8,22l0.2,0.2c3.6,3.7,11.5,2.8,18,2
	c10.8-1.4,16.2-2,17.3-2.8c5.1-3.4,5.8-8.3,9.5-18c2.5-6.5,1-1.2,11.8-24c7.1-15.1,11.9-25.2,17.5-39.3c3-7.5,7-17.6,11.3-31.3
	c3.6-11.6,6.7-21.6,8.8-35.3c1.9-12.2,1.9-20.8,2.3-20.8c0.5,0,0.1,18-0.5,33.5c-0.4,9.9-0.6,14.8-1,19c-1.3,13.9-3.9,27.6-7.8,41
	c-2.7,9.8-6.2,19.5-10.5,28.8c-4,9.3-9,18.2-14.8,26.5c-9.5,13.4-17.2,19.3-15.3,22.8c1.1,2,5.2,2,13.5,2c4.9,0,9.7-0.3,14.5-1
	c1.5-5.9,3.5-11.7,6-17.3c4.4-10,8.3-14.7,19.3-30.8c2.2-3.2-4.6,6.7,18.5-27.8c15.8-23.5,18.5-27.5,19-27.3
	c0.7,0.4-4.9,10.1-14,29.5c-7,14.9-7.9,18-16.3,35.5c-9.5,19.9-11.9,23.1-14.8,26.3c-5,5.4-10.6,9.6-9.5,12
	c0.6,1.3,2.9,1.3,10.5,1.3c16.5-0.1,17.2,0.1,18.8-0.8c5.9-3,6-9.5,10-19.3c1.7-4.1,7-11.5,17.5-26c13.8-19.1,20.8-28.6,29.5-38.3
	c9.5-10.4,19.9-20.2,20.8-19.5s-8,9.7-18,26c-9.5,15.5-8,17.8-18,33.8c-5.6,9-9.9,15.7-17,24c-9.6,11.1-17.8,17.3-16,20.8
	c0.5,1,3.7,1.4,10,2.3c11.1,1.4,12.7,0.7,13.8-0.3c2.1-2,1-5,1.5-8.5c0.8-6.6,6.5-11.5,16-17.6c16-10.1,21.5-9.9,38-18.9
	c9.4-5.1,8-5.4,27.3-16.8c1.5-0.9,20.6-12.1,21-11.5c0.3,0.4-8.3,5.5-19,13.8c-16.3,12.6-14.9,15-28,25c-10.3,7.8-13,7.7-32,21.3
	c-11.2,8-15.2,11.5-14.5,13c1,2,9.4-2,22.8-2.3c7.6-0.1,13.1,1.1,23.8,3.5c8.8,2,16.7,4.3,34.3,10.3c18.8,6.4,28.1,9.5,36.8,13.3
	c17.1,7.4,33,16.1,32.5,17.3c-0.4,0.9-10.5-3.9-27.8-8.5c-10.2-2.7-19.4-4.2-37.3-7c-27.2-4.3-40.8-6.4-44-6.8
	c-8.4-0.9-16.5-1.4-26-6.3c-7-3.6-11.3-7.7-12-7c-0.9,0.9,5.7,8.1,17,21.5c9.9,11.8,14.9,17.7,17.5,21.5c11.5,16.7,16.8,33.6,16,34
	c-0.4,0.2-2.4-4.1-7.3-10.8c-3.2-4.4-6.7-8.5-17.8-19.3c-16.7-16.3-16.9-14.8-22-21.3c-7.4-9.4-11.1-14.1-12.3-18
	c-0.5-2.2-1.6-4.2-3.3-5.7c-2-1.7-4.5-2.3-10-2.5c-8.3-0.3-14.5-0.5-15,1.5c-0.6,2.3,6.8,4.4,15.5,12c3.9,3.4,6,6.1,13.5,16.5
	c10.7,14.9,16.1,22.3,18.5,26c10.4,16,21.6,36.4,20,37.5c-0.8,0.5-4.1-4.1-14-14.3c-4.7-4.8-6.1-6-17-16.3c0,0-11.6-11-25-24
	c-17.3-16.8-20.1-20.2-21-26c-1-6.3,1-10.9-2.5-14c-2.1-1.9-4.2-1.4-15-2c-9.8-0.6-12.9-1.4-13.5,0c-0.9,1.9,4.1,5.8,8.3,9.5
	c10.7,9.6,16.6,18.9,23.5,29.9c4.3,6.8,7.4,14.4,13.7,29.6c6.6,16,7.1,20.2,13,31.8c6.2,12.3,11.5,19.1,11,19.5
	c-0.8,0.5-13.2-14.6-25.5-32c-18.3-25.9-15.9-27.9-27-39.3c-0.6-0.7-9.2-9.4-19.5-21.5c-5.9-7-11.1-13.7-9.3-19.7
	c1.2-3.8,4.5-5.3,3.8-7.3c-0.5-1.2-2.3-1.9-14-2c-11.1-0.1-11.7,0.4-12,1c-1.3,2.7,7.1,7.4,16.5,18c5,5.8,9.4,12.2,12.9,19.1
	c5.5,9.9,8,18.4,11.6,32.4c5.9,23.2,12.5,53.5,11.3,53.8c-0.7,0.2-2.5-10.1-9.3-26c-5.3-12.2-11.7-23.9-19.1-34.9
	c-1.2-1.7-6.4-8.8-16.9-22.8c-11.3-15.3-13.6-18.1-15-24c-2.2-9.3,0.3-14.6-4-18c-2.1-1.7-3.8-1.3-16-1.3c-13.7,0-15.4-0.5-17,1.3
	c-3.2,3.5,0.4,9.6,3.5,22.6c2.6,11.1,3.1,19.5,3.6,29.7c0.5,11-0.2,22.1-2.1,33c-2.2,13.6-6.2,28.3-10,48.8c-0.6,3.4-1.7,9.3,0.5,16
	c2.1,6.4,6,10.1,5.5,10.5s-6.7-3.9-9.8-10.8s-1.7-13.5-1-18c1.2-7.8,0.4-17.5-1.3-36.8s-4.7-18.5-7-41.3
	c-1.4-14.2-2.1-21.4-0.5-29.3c3.1-15,10.6-22.9,7-27.2c-1.3-1.5-6.7-1.5-17.5-1.3c-13,0.3-13,0.9-19,0.5c-7.8-0.5-13-1.9-13.5-0.5
	c-0.4,1.1,2.3,2.4,5.3,6c2.3,3,4,6.4,5,10c3.6,10.7,3.2,24.4,3.1,25.6c-0.3,9.7,0.2,17.9,1.2,34.5c1.6,27.3,5.5,28.2,3.7,43.8
	c-0.8,9.5-3.1,18.8-6.6,27.6c-3.6,8.7-6.2,10.9-8,18.8c-3,13,0.2,23.1-0.5,23.3s-4.4-9.3-4.8-21.5c-0.5-15.2,4.5-19.2,5.5-33.8
	c0.3-4.5-1.4-13.7-4.8-31.8c-4.8-25.9-6-27.8-7-38.8c-0.9-9.7-1-19.5-0.5-29.3c0.9-17.8,3.9-31.2,3.5-31.3s-1.7,13-8,29.3
	c-3.3,8.6-4.7,9.4-10.1,21.6c-4.2,9-7.8,18.4-10.7,27.9c-4.5,15.4-7.9,27.4-3.8,40.5c2.8,8.7,8,14.7,7.5,15s-7-6.1-11-15
	c-2.9-6.5-3.8-12.5-2.8-39c0.6-16.3,0.9-24.5,2-29.8c1.8-8.9,4.1-20.4,12-32c9.3-13.7,19.5-17.2,18-21.3c-1.6-4.4-14.7-3.6-27.8-2.8
	c-11,0.6-22.2-0.2-33,1.8c-2.6,0.5-8.2,1.6-10.9-1.3C0.6,197.1,0.1,194.9,0.9,193z"/>
</svg>
