<?xml version="1.0" encoding="utf-8"?>
<!-- Generator: Adobe Illustrator 22.1.0, SVG Export Plug-In . SVG Version: 6.00 Build 0)  -->
<svg version="1.1" id="Calque_1" xmlns="http://www.w3.org/2000/svg" xmlns:xlink="http://www.w3.org/1999/xlink" x="0px" y="0px"
	 viewBox="0 0 589.8 434.3" style="enable-background:new 0 0 589.8 434.3;" xml:space="preserve">
<style type="text/css">
	.st0{fill:none;}
</style>
<path class="st0" d="M1.1,199.3c1.2-0.9,3.3,0,4,0.2c5.4,2.1,12.6,0.3,37.5,2.8c20.2,2.1,19.6,3.7,47,7.3
	c22.1,2.9,18.2,1.3,34.7,3.8c14.8,2.3,30,1.4,44.5,5c3.1,0.8,8.8,2.3,12.8-0.7c4.4-3.2,4.5-10,4.5-14.5c0-10.1-3.9-19.1-11.9-36.6
	c-4.9-10.9-7.3-16.3-7.6-16.9c-13.7-28.8-17-28.9-21-42c-6-19.6-4.8-33.9-4.5-37.5c1.4-14.8,6.2-27.2,7-27
	c0.6,0.1-6.3,15.8-4.8,36.8c0.9,12.9,4.6,22.6,7.9,31.1c5.8,14.8,8.3,14.3,20.3,38.7c8.4,17.1,4.5,11.9,13.3,31
	c3.3,7.2,6.3,13.1,6.1,21.5c-0.1,3.5-0.7,6.2,0.2,6.5c1.9,0.8,8.3-11.6,14.5-22.8c11.6-21,11.2-17.4,23-38.4
	c17.1-30.4,14.1-31,28.5-54.8c9.8-16.2,14.7-24.3,20.3-32c5.3-7.3,10.1-14.9,14.4-22.8c5.1-9.4,6.3-13.1,6.8-16.7
	c1.6-11.7-3.4-21.1-3-21.2s4.3,6.6,5,15c1,12.3-4.9,21.6-11.3,31.8c-3.4,4.8-8,11.6-13.1,19.9c-5.6,9-9.7,16.5-14.5,25.5
	c-10.4,19.4-11.9,23.1-20.6,39.8c-13.5,25.7-20.3,38.5-24.3,43.6c-7.5,9.5-12.7,20.6-19.7,30.5c-2.4,3.5-4.7,6.7-3.7,9.5
	c0.6,1.6,2.4,3.3,29.5,6.2l0,0c16.1,1.6,15.8-0.1,20.7,1.3c1.2,0.5,2.6,0.6,3.8,0.1c1.8-0.8,2.5-3,2.7-3.6
	c3.7-11.7,11-22.1,14.7-33.8c2.6-8.3,1.7-3,12.7-29.8c3.1-7.6,16.9-41.3,22.7-61.3c0.4-1.4,1.6-5.5,3.5-10.9c1.2-3.6,3-8.2,6.3-16
	c7.3-17.1,13.5-29.3,13.2-47.5c-0.2-9.6-2.2-18.2-1.8-18.3s4,10.3,3.8,22.8c0,4-0.5,10.7-5.2,25.8c-2.8,9-6.2,17.9-10,26.5
	c-8.5,20-5.4,20.8-14.9,48.9c-8.5,25.1-19.1,48.5-20.3,51c-2.2,4.8-6.7,14.5-11.9,28.4c-2.1,5.6-2.7,11.9-5.9,17
	c-0.2,0.3-0.9,1.4-0.5,2s2,0.3,2.4,0.2c6-1.4,12.3,0.2,18.4,0c15.2-0.4,15.3-0.4,15.8-0.2s2.3,0.9,3.6,0.1c0.5-0.3,0.9-0.8,1.1-1.3
	c0-0.1-1.5,3.2,4.2-6c19.8-32.4,24.8-42.2,24.8-42.2c7.4-14.5,11.1-21.8,14.5-32.7c2.1-7,3.1-12,4.8-21c3.9-20.7,1.2-22.2,6.1-53.1
	c2.1-13.3,4.2-22.5-0.8-32.5c-3.4-6.8-9.1-11.9-8.8-12.3s6.1,4,9.8,9.9c6.1,9.8,4.4,20.5,3,31.7c-3.8,31.3,0.1,25-3.1,46.2
	c-2.4,16-4.4,29.4-11.2,45.9c-3.1,7.6-6.4,14-13.2,26.8c-0.7,1.3-9,17.1-14.4,25.8c-2.4,3.9-3.9,8.4-7.2,11.6
	c-0.4,0.4-1.6,1.5-1.3,2.1s2.4,0.4,3.1,0.3c1.2-0.2,7.1-0.1,18.8,0.1c3.6,0.1,7.3-0.9,10.7,0c1.1,0.3,2.2,0.3,3.3-0.1
	c6.4-0.9,10.1-12.9,12.7-20.1c0.2-0.6,5.5-10.9,16.2-31.3c9.4-18.1,8.9-15.9,13.7-25.8c1.3-2.8,4.7-9.9,9.8-19
	c2.9-5.2,6.2-11.1,6.8-10.8c0.9,0.4-4.4,13.8-8.2,22.5c-2.6,6.1-5.7,12.7-11.2,23.5c-11.1,21.8-10.3,17.7-16,29.9
	c-3.3,7-11.8,25.9-16,29.7c-0.3,0.3-1.8,1.6-1.5,2.2s2.1,0.1,2.8,0s4.1-0.1,11,0c9.4,0.1,14.1,0.2,14.7,0.3c1.1,0.3,2.3,0.3,3.3-0.2
	c2.1-1,2.7-3.6,3-4.5c0.1-0.4,4-6.4,11.7-18.4c1-1.6,2.2-3.4,7-10.6c12.4-18.4,18.5-27.7,23-33.7c8.2-11.1,7-8.5,18.2-23.3
	c7-9.3,9.6-13.2,15.2-18.5c8.5-8.2,17.4-13.6,17.8-13s-9.7,7.8-21.8,21.7c-8.6,9.9-14.1,18.5-20.5,28.5c-7.1,11-5.6,10.1-15.8,26.7
	c-10.1,16.4-15.1,24.6-19.2,28.5s-6.6,9.1-10.7,13c-0.4,0.3-1.6,1.4-1.3,2.2c0.3,1,2.6,1.1,4.2,1.2c14.8,0.7,10.3,0.9,16.5,0.8
	c5.7,0,5.9-0.2,7.3,0.2s2.7,0.9,3.8,0.3c1.6-0.8,1.9-3.2,2-3.7c1.4-8.2,24.8-23,24.8-23c16-10.1,24.1-15.2,28.3-18.3
	c11.8-8.6,11.4-10.3,28.7-23.3c6.2-4.7,13.6-10,24.3-14c6-2.2,12.3-3.8,12.5-3.2c0.3,0.8-11.3,4.2-25.2,13
	c-8.2,5.2-14.1,10.4-23.2,18.2c-9.9,8.6-8.9,8.7-15.5,14c-7,5.7-9.5,6.2-25.7,17.3c-3.6,2.5-6.8,4.7-10.7,7.7
	c-6.5,5-16.6,12.6-15.5,14.7c0.4,0.7,2,0.4,4.2,0.2c5.8-0.7,11.8,0.1,17.7-0.2c14.2-0.6,28.4-0.3,42.5,1c9.4,1,19.9,2.2,33,6.5
	c7.3,2.4,13.1,5.2,24.7,10.7c5.2,2.5,12.7,6.4,27.5,14.3c13.9,7.4,17.8,9.6,17.5,10.3c-0.4,1-8.5-1.3-12.5-2.5
	c-6.2-1.8-12.4-4-18.3-6.6l-1-0.4c-12.3-5.3-25-9.8-37.8-13.7c-10.8-3.1-17.4-5.1-27-6.7c-20.2-3.3-21.5,0.1-37.7-3.3
	c-7.4-1.6-15-1.1-22.5-2c-1.5-0.2-5-0.6-5.5,0.5c-0.4,0.9,1.6,2.5,3,3.7c3.8,3.1,7.7,6.3,11.3,9.7c4.8,4.4,11.1,10.1,18.3,18
	c5.5,6,4.9,5.9,20.2,24.8c11.3,14,16,19.4,21.7,29.5c3.1,5.5,6.4,12.2,5.8,12.5s-4.8-6.3-13.3-17.8c-4.1-5.6-10.2-13.7-18.3-23.2
	c-5-5.8-9-10-13.3-14.7c-4.1-4.3-9-9.5-15.7-16c-5.8-5.6-6.3-5.8-12.8-12.2c-6.8-6.7-10.2-10-11-11.2c-2-2.9-3.3-5.6-6.5-7
	c-1.5-0.6-3.4-0.7-7.2-0.8c-11.2-0.3-10.7-0.3-12-0.3c-8.4-0.4-11.1-1.5-11.7-0.3c-0.8,1.6,3.4,5.2,7.7,9c6.5,5.9,12.6,12.2,19.2,18
	c5.8,5.1,11.9,11.6,24,24.7c9.6,10.3,14.4,15.5,20.2,22.7c6.5,8,12.4,16.6,17.7,25.5c4.7,8.1,9.5,18,8.7,18.5
	c-0.6,0.3-3.7-4.2-12.5-16.2c-8.6-11.6-13.5-18.3-19.2-25.2c-7.3-8.9-13.4-15.1-19-20.8c-6.8-6.9-14.7-15-25.8-24.7
	c-4.7-4-11.7-9.9-16.9-16.1c-5.3-6.4-7.9-9.6-8.4-11.2c-0.3-1.3-1-2.4-2.1-3.1c-1-0.6-2.1-0.8-3.2-0.7c-4.7,0.3-9.3-0.7-14-0.7
	c-10.8,0.1-14.4-0.6-15,1c-0.4,1.1,1,2.5,1.5,3c5.2,5.4,8.9,12.2,14.2,17.5c2.2,2.2,1.4,1.7,13.5,19.7c12,17.7,10.8,15.3,15.7,22.8
	c8.2,12.7,7.8,13.9,17,28.5c6.4,10.1,9.3,12.4,14,21.2c2.1,3.9,3.5,6.9,6.7,11.8c5,7.7,9.1,12.1,8.8,12.3s-5.7-4.5-11-10.8
	c-4.5-5.4-6.6-9-11.2-16.2c-9.7-15.2-9.8-13.6-16.7-25c-6.4-10.5-5.6-10.7-11.2-19.3c-4.3-6.8-7.9-11.6-15-20.8
	c-3-3.9-10.3-13.4-19-24.3c-10.3-13-11.6-14.3-12.3-17.3c-0.2-0.9-0.8-3.8-3-5c-1.7-1-3.3-0.4-6.3,0c-3.6,0.4-3.1-0.3-10.5-0.3
	c-2.2,0-2,0-10.3,0.3s-9.4,0.3-9.8,1c-1.2,2.3,5.1,7.1,11.2,14c3.8,4.3,7.1,10.1,13.7,21.7c2.1,3.8,9.5,16.7,17.7,34.8
	c2.1,4.6,5,11.6,10.8,25.7c5.6,13.6,6.2,15.4,6.8,17.5c2.9,10.4,2,13.6,5.7,21.7c3,6.6,6.7,10.9,6,11.5s-4-2.2-6.5-5.2
	c-6.3-7.5-5.4-15.5-6.8-23.8c-1.2-6.9-2.4-5-14.8-29.8c-9.4-18.7-8.3-19-14.8-30.7c-6.8-12.1-10.1-18.1-15.8-25.2
	c-7.7-9.5-15.5-16.4-15.8-23.8c0-1.1,0-4.5-2.3-6.5c-1.4-1.1-3.2-1.6-5-1.5c-11.5,0-19.1,0.8-25.7,0.7c-7.7-0.2-11.8-2-13.2,0.2
	c-1,1.5,0.3,3.5,1.8,7.6c1.9,4.7,2.6,9.8,4.1,14.7c3,10,2.5,14.2,5.1,28.1c1.5,7.7,1.5,5.5,6.6,26.3c3.8,15.5,5.7,23.4,6.8,30.7
	c1.2,8.2,0.6,7.6,2.5,23.5c0.7,5.7,1.7,14.1,3.3,24.5c2.7,17.2,4.9,25.3,4.2,25.5s-4.6-9.2-7.3-19c-0.9-3.1-2.7-10.2-5.2-31
	c-2-16.6-1.3-16.2-2.8-25.5c-1.4-8.9-3.4-17.7-6-26.3c-2.9-9.6-3.8-9.9-7.3-21.7c-2.5-8.3-3.9-12.9-5-19.7c-1-6.2-0.7-7.4-2.5-19.8
	c-2-14.1-2.2-11.4-2.2-12.7s0.3-3.5-1-4.7c-1.6-1.4-4.5-0.6-5.3-0.3c-1.3,0.4-8.2-0.5-22-2.3c-8.8-1.1-17.6-1.4-26.3-3
	c-3.8-0.7-7.7-1.6-8.7,0c-1.2,1.9,2.4,6,4.7,8.8c4.9,6.2,7.9,13.5,14,28c4.3,10.3,2.3,9.4,8.7,29c3.1,9.7,3.3,9,9,25.2
	c4.3,12.3,4,12.1,11.2,33.3c7.4,22,7.6,21.6,8.3,25.3c1.9,9.2,2.8,22.7,2.8,34.3c0,4.2-0.1,9.6,2.1,16.5c2,6.1,4.8,10.3,4.4,10.5
	s-4.6-4.5-7.3-10.5c-4.1-9-4-16.4-4.5-23.5c-0.7-10.5-2.3-17.9-4.8-29.3c-2.4-10.8-7-21.9-16.2-44c-7.5-18-7.8-17.1-11.7-27.7
	c-4.5-12-4.1-13.3-10.7-31.5c-4.5-12.6-5.3-13.7-7.2-20.3c-2.3-8.3-3.1-13.5-4.3-13.5c-1.4,0-2,6.8-3.8,16.7
	c-2.4,13.2-3.7,13.3-6.5,26.3c-1.8,8.4-3.8,17.7-4.2,29.8c-0.2,6.5,0.5,13.8,1.8,28.3c1.5,16.3,2.8,22,4.7,27.7
	c2.2,6.6,4,11.8,8.8,16.5c6.3,6.1,14,7.8,13.7,8.7c-0.2,0.7-4.9,0.4-9.3-1.4c-7.2-3-12-9.3-16.3-18.4c-6.3-13.4-7.7-24.9-9.3-38.7
	c-1.6-13-2-26.1-1.2-39.2c0.5-8.3,1.6-16.5,3.3-24.7c2.7-12.7,4-19,6.7-22.3c5.5-6.9,6.2-9.4,7.7-14.5c0.3-0.8,0.3-1.7,0-2.6
	c-1.4-3.2-8.4-2.8-13.5-2.8c-7.6,0-15.1-1.9-22.7-2.2c-10.9-0.4-11.2-1.5-42.2-5.7c-27.4-3.7-22.9-2.3-48.8-5.8
	c-10.9-1.5-23.4-3.3-32.2-3.3c-5.2,0-10.4-1.6-15.5-0.5c-1.1,0.2-3.1,0.8-4.5-0.3C-0.3,204.2-0.5,200.4,1.1,199.3z"/>
<title>Fichier 1</title>
</svg>
